<svg width="700" height="600" viewBox="0 0 700 600" xmlns="http://www.w3.org/2000/svg">
    <style>
        .st0{fill:#f5eaec}.st0,.st1{opacity:.8}.st2{fill:#f5eaec}
    </style>
    <path class="st0" d="M300,0c80.1,0,155.5,31.2,212.1,87.9c56.7,56.6,87.9,132,87.9,212.1s-31.2,155.5-87.9,212.1	C455.5,568.8,380.1,600,300,600s-155.5-31.2-212.1-87.9C31.2,455.4,0,380.1,0,300c0-80.1,31.2-155.5,87.9-212.1	C144.5,31.2,219.9,0,300,0z M300,592.4c78.1,0,151.5-30.4,206.8-85.6s85.6-128.7,85.6-206.8S562,148.5,506.8,93.2S378.1,7.5,300,7.5	S148.5,37.9,93.2,93.2S7.5,221.9,7.5,300S38,451.5,93.2,506.8S221.9,592.4,300,592.4z"/>
    <path class="st0" d="M300,139.6c88.5,0,160.4,72,160.4,160.4s-72,160.4-160.4,160.4s-160.4-72-160.4-160.4S211.5,139.6,300,139.6z M300,453.8c84.8,0,153.8-69,153.8-153.8s-69-153.8-153.8-153.8s-153.8,69-153.8,153.8S215.2,453.8,300,453.8z"/>
    <g class="st1">
        <path class="st2" d="M529.2,177c1.2,0,2.2,0.7,2.7,1.9l8.7,20.1c2.6,6.1,3.1,11.8,1.5,16.9c-1.7,5.2-5.4,9-11,11.5L504,239.1 c-5.6,2.4-11,2.5-15.9,0.2c-4.9-2.3-8.7-6.5-11.3-12.6l-8.7-20.1c-0.5-1.1-0.3-1.9-0.1-2.4c0.2-0.5,0.7-1.2,1.7-1.7l58.2-25.2 C528.3,177.1,528.8,177,529.2,177z M495.5,237.3c2.2,0,4.5-0.5,6.9-1.6l27.2-11.7c4.7-2,7.6-5,9-9.2c1.4-4.2,0.9-9-1.3-14.2 l-8.5-19.5l-57,24.7l8.5,19.5c2.3,5.2,5.4,8.8,9.4,10.7C491.5,236.9,493.5,237.3,495.5,237.3z M526.8,185.3c0.9,0,1.7,0.5,2.1,1.4 l6.5,15c1.8,4.3,2.1,8.3,0.6,11.9c-1.4,3.6-4.3,6.4-8.5,8.2l-25.5,11c-4.2,1.8-8.1,2-11.7,0.5c-3.6-1.5-6.4-4.3-8.2-8.5l-6.5-15 c-0.5-1.3,0-2.6,1.2-3.1l48.9-21.2C526.2,185.4,526.5,185.3,526.8,185.3z M495.4,230.5c1.6,0,3.3-0.4,5.2-1.2l25.5-11 c3.3-1.4,5.4-3.4,6.5-6.1c1.1-2.7,0.9-5.6-0.6-9l-5.9-13.6l-46.3,20l5.9,13.6c1.4,3.3,3.4,5.4,6.1,6.5 C492.9,230.2,494.1,230.5,495.4,230.5z"/>
        <path class="st2" d="M553.5,249.5c1.5,0,2.7,1,2.9,2.6l0.7,4.2c0.2,1.1-0.1,1.9-0.5,2.4c-0.3,0.5-0.9,1-2.1,1.2L492,271 c-1.8,0.3-3.3-0.7-3.6-2.5l-0.7-4.2c-0.2-1.1,0.1-1.9,0.5-2.4c0.3-0.5,0.9-1,2.1-1.2l62.5-11.1 C553.1,249.5,553.3,249.5,553.5,249.5z M553.4,256.2l-0.5-2.9l-61.2,10.9l0.5,2.9L553.4,256.2z"/>
        <path class="st2" d="M509.8,285.8c0.3,0,0.7,0,1,0l2.6,0.1c1.9,0.1,3.1,1.4,3,3.3l-0.2,4c-0.1,1.2-0.6,1.8-1,2.2 c-0.4,0.4-1.1,0.8-2.3,0.8l-2.3-0.1c-3-0.1-5.4,1-7.4,3.4c-2.1,2.6-3.3,6.2-3.5,10.9c-0.2,4.4,0.5,7.7,2.2,9.9 c1.6,2.1,3.7,3.2,6.5,3.4c1.8,0.1,3.3-0.3,4.6-1.2c1.4-0.9,2.8-2.5,4.1-4.6c1.4-2.2,3.2-5.5,5.1-9.8c2.1-4.7,4-8.3,5.5-10.9 c1.7-2.8,3.8-5,6.3-6.7c2.6-1.7,5.9-2.5,9.7-2.3c5.8,0.3,10.4,2.6,13.5,6.9c3,4.1,4.3,9.7,4,16.6c-0.2,7.3-2.2,13.1-6,17.3 c-3.8,4.3-8.8,6.3-14.8,6.1l-1.8-0.1c-1.2-0.1-1.8-0.6-2.2-1c-0.4-0.4-0.8-1.1-0.8-2.3l0.2-4.1c0.1-1.9,1.4-3,3.3-3l1.4,0.1 c3.1,0.1,5.6-0.9,7.6-3.2c2.1-2.4,3.3-5.9,3.5-10.6c0.2-4-0.5-7.1-1.9-9.2c-1.4-1.9-3.4-3-6.3-3.1c-1.8-0.1-3.3,0.3-4.5,1.1 c-1.3,0.9-2.5,2.3-3.5,4.2c-1.2,2.1-2.7,5.3-4.7,9.6c-2.1,4.6-4.1,8.3-5.9,11.1c-1.9,3-4.2,5.3-6.8,7.1c-2.8,1.8-6.1,2.6-9.8,2.4 c-5.8-0.3-10.4-2.7-13.7-7.1c-3.2-4.3-4.7-10.3-4.4-17.6c0.2-4.8,1.2-9.1,2.9-12.6l0,0c1.8-3.7,4.2-6.5,7.2-8.4 C503.1,286.6,506.3,285.8,509.8,285.8z M512.6,289.6l-2-0.1c-3.1-0.1-5.9,0.5-8.3,2.1c-2.4,1.5-4.4,3.8-5.8,6.8l0,0 c-1.5,3.1-2.3,6.9-2.5,11.2c-0.3,6.4,0.9,11.5,3.6,15.1c2.7,3.6,6.2,5.4,10.9,5.6c3,0.1,5.5-0.5,7.6-1.8c2.2-1.4,4.1-3.4,5.7-5.9 c1.7-2.7,3.6-6.2,5.7-10.6c2-4.4,3.6-7.7,4.8-9.9c1.3-2.3,2.9-4.2,4.6-5.4c1.9-1.3,4.2-2,6.9-1.8c4,0.2,7.1,1.8,9.2,4.7 c1.9,2.8,2.8,6.6,2.6,11.5c-0.3,5.6-1.8,9.9-4.5,13c-2.8,3.1-6.4,4.6-10.6,4.4h-0.7l-0.1,2.8l1.1,0.1c4.8,0.2,8.7-1.3,11.8-4.8 s4.9-8.5,5.2-15c0.3-6-0.8-10.8-3.3-14.2c-2.4-3.3-5.9-5.1-10.6-5.3c-3-0.1-5.5,0.4-7.4,1.7c-2,1.3-3.8,3.2-5.2,5.4 c-1.5,2.5-3.3,6-5.3,10.5c-2.1,4.4-3.9,7.9-5.4,10.3c-1.6,2.5-3.4,4.4-5.2,5.7c-2,1.3-4.3,1.9-6.9,1.8c-4-0.2-7.1-1.8-9.4-4.9 c-2.2-3-3.2-7.1-2.9-12.4c0.3-5.5,1.7-9.9,4.4-13.1c2.8-3.4,6.3-5,10.5-4.8l1.6,0.1L512.6,289.6z"/>
        <path class="st2" d="M484.4,357.7c0.4,0,0.8,0.1,1.2,0.2l53.8,18.5l5.2-15c0.4-1.1,1-1.6,1.5-1.9c0.5-0.2,1.3-0.5,2.4-0.1l3.3,1.1 c1.8,0.6,2.5,2.2,1.9,4l-14,40.7c-0.4,1.1-1,1.6-1.5,1.9c-0.5,0.2-1.3,0.5-2.4,0.1l-3.3-1.1c-1.1-0.4-1.6-1-1.9-1.5 c-0.2-0.5-0.5-1.3-0.1-2.4l5.5-15.9l-53.8-18.5c-1.8-0.6-2.5-2.2-1.9-4l1.4-4C482.1,358.5,483.2,357.7,484.4,357.7z M540.3,380.6 c-0.3,0-0.6,0-0.8-0.1L485,361.8l-0.9,2.7l54.5,18.7c1.3,0.4,1.9,1.7,1.5,3l-5.7,16.5l2,0.7L550,364l-2-0.7l-5.4,15.8 c-0.2,0.6-0.6,1.1-1.2,1.4C541,380.5,540.7,380.6,540.3,380.6z M540.7,376.9L540.7,376.9L540.7,376.9z M538.9,377.8L538.9,377.8 L538.9,377.8z M533.7,402.5L533.7,402.5L533.7,402.5z"/>
        <path class="st2" d="M467.9,396.3c0.6,0,1.3,0.2,1.9,0.7l51.3,37.5c1.5,1.1,1.8,2.9,0.7,4.4l-14.2,19.5c-3.5,4.8-7.9,7.6-13,8.4 c-5.1,0.8-10.2-0.6-14.9-4c-3.9-2.8-6.4-6.4-7.6-10.4c-1-3.6-0.9-7.2,0.3-10.9l-29.8-5.4c-0.6-0.1-1-0.3-1.4-0.5 c-0.8-0.6-1-1.3-1.1-1.7c-0.1-0.8,0.1-1.6,0.7-2.3l2.6-3.5c0.8-1.1,2.1-1.6,3.5-1.4l0,0l30.8,5.9l8-10.9l-22-16.1 c-1.5-1.1-1.8-2.9-0.7-4.4l2.5-3.4C466.1,396.8,467,396.3,467.9,396.3z M518.3,437.2l-50.2-36.7l-1.7,2.3l22.6,16.5 c0.5,0.4,0.9,0.9,1,1.5c0.1,0.6-0.1,1.2-0.5,1.8l-9.3,12.7c-0.6,0.8-1.5,1.1-2.5,1l-31.4-6l-1.7,2.3l30.2,5.5 c1,0.2,1.4,0.9,1.6,1.2c0.3,0.6,0.3,1.3,0,2c-1.5,3.4-1.7,6.7-0.8,10c1,3.3,3,6.1,6.2,8.4c4,2.9,7.9,4,12.1,3.4 c4.2-0.6,7.6-2.9,10.5-6.9L518.3,437.2z M472.9,439.7C472.9,439.6,472.9,439.6,472.9,439.7C472.9,439.6,472.9,439.6,472.9,439.7z M492.6,422.5c0.5,0,1,0.2,1.4,0.5l19,13.9c0.5,0.4,0.9,0.9,1,1.5s-0.1,1.2-0.5,1.8l-10.3,14.1c-2.5,3.3-5.6,5.3-9.3,5.9 c-3.7,0.5-7.2-0.4-10.6-2.9s-5.3-5.5-5.9-9.2c-0.5-3.6,0.4-7.2,2.9-10.5l10.3-14.1c0.4-0.5,0.9-0.9,1.5-1 C492.4,422.5,492.5,422.5,492.6,422.5z M491.8,426.1L491.8,426.1L491.8,426.1z M509.7,439.1L493,426.9l-9.4,12.9 c-1.9,2.5-2.6,5.1-2.2,7.7c0.4,2.6,1.8,4.8,4.3,6.7c2.5,1.9,5.1,2.6,7.8,2.2s4.9-1.8,6.8-4.4L509.7,439.1z"/>
        <path class="st2" d="M428.3,442.8c0.8,0,1.7,0.4,2.3,1.2l0,0l41.4,48.1c1.2,1.4,1.1,3.2-0.3,4.4l-3.2,2.8c-0.9,0.8-1.7,0.9-2.3,0.8 c-0.6,0-1.4-0.3-2.1-1.1l-41.4-48.1c-1.2-1.4-1.1-3.2,0.3-4.4l3.2-2.8C426.8,443.1,427.6,442.8,428.3,442.8z M468.7,494l-40.5-47.1 l-2.2,1.9l40.5,47.1L468.7,494z"/>
        <path class="st2" d="M400.2,465.6c4.1,0,7.8,1.1,11.2,3.2c3.4,2.1,6.1,5.2,8.2,9.2l12,22.9c2,3.9,3,7.9,2.8,11.9 c-0.2,4-1.5,7.7-3.8,11.1c-2.3,3.3-5.6,6.1-9.7,8.3c-4.1,2.2-8.3,3.3-12.3,3.3c-4,0.1-7.8-1-11.2-3s-6.1-5-8.1-8.9 c-0.6-1.1-0.5-2.6,1.2-3.9l0.1-0.1l4-2.4c0.6-0.3,1.2-0.4,1.8-0.3c1.2,0.1,1.7,0.8,1.9,1.2l0.3,0.5c1.8,3.5,4.3,5.6,7.5,6.6 c3.3,0.9,6.7,0.4,10.4-1.5c3.7-1.9,6-4.5,7.1-7.7s0.7-6.5-1.1-9.9l-12.2-23.4c-1.8-3.4-4.3-5.6-7.5-6.5c-3.3-1-6.7-0.5-10.4,1.5 c-3.7,1.9-6,4.5-7.2,7.7c-1.1,3.2-0.7,6.4,1.1,9.9c0.5,1,0.4,1.8,0.2,2.3c-0.2,0.5-0.6,1.3-1.8,1.8l-3.8,1.8 c-0.6,0.3-1.5,0.7-2.5,0.4c-0.6-0.2-1-0.6-1.3-1.1l-0.2-0.4c-2-3.9-3-7.9-2.8-11.8c0.2-4,1.5-7.7,3.9-11c2.3-3.3,5.6-6,9.8-8.2 C392,466.7,396.1,465.6,400.2,465.6L400.2,465.6z M408.3,531.6c0.1,0,0.1,0,0.2,0c3.4,0,7-1,10.6-2.9c3.6-1.9,6.4-4.3,8.4-7.1 c1.9-2.8,3-5.8,3.2-9.1c0.2-3.3-0.6-6.6-2.3-9.9l-12-22.9c-1.8-3.4-4.1-5.9-6.9-7.7c-2.8-1.7-5.9-2.6-9.2-2.6c0,0,0,0-0.1,0l0,0 c-3.4,0-7,1-10.6,2.9c-3.6,1.9-6.4,4.3-8.4,7c-1.9,2.7-3,5.8-3.2,9c-0.2,3,0.5,6,1.9,9l2.6-1.2c-2-4.1-2.3-8.2-0.9-12.1 c1.4-4.1,4.4-7.4,9-9.8c4.5-2.4,9-3,13.2-1.7c4.3,1.2,7.6,4.1,9.8,8.4l12.2,23.4c2.3,4.4,2.7,8.7,1.3,12.9s-4.4,7.5-9,9.9 c-4.5,2.4-9,3-13.2,1.8c-4-1.1-7.2-3.7-9.5-7.7l-2.5,1.5c1.6,2.9,3.8,5.1,6.3,6.7C402,530.8,405,531.6,408.3,531.6z M378.9,497.8 L378.9,497.8L378.9,497.8z M380.5,498.6L380.5,498.6L380.5,498.6z"/>
        <path class="st2" d="M338.7,487.3c1.5,0,2.6,1,2.9,2.6l10.5,55.9l15.6-2.9c1.1-0.2,1.9,0.1,2.4,0.4s1,0.9,1.3,2.1l0.6,3.4 c0.3,1.8-0.7,3.3-2.5,3.6l-42.3,8c-1.8,0.3-3.3-0.7-3.6-2.5l-0.6-3.4c-0.3-1.8,0.7-3.3,2.5-3.6l16.4-3.1l-10.5-55.9 c-0.2-1.1,0.1-1.9,0.4-2.4s0.9-1,2.1-1.3l4.2-0.8C338.2,487.4,338.5,487.3,338.7,487.3z M350.9,549.8c-1.1,0-2-0.8-2.3-1.9 L338,491.3l-2.9,0.5l10.6,56.6c0.1,0.6,0,1.3-0.3,1.8c-0.3,0.5-0.9,0.9-1.5,1l-17.1,3.2l0.4,2.1l41-7.7l-0.4-2.1l-16.4,3.1 C351.3,549.8,351.1,549.8,350.9,549.8z M343.2,547.5L343.2,547.5L343.2,547.5z M342.1,549.1L342.1,549.1L342.1,549.1z M326.7,553.7 L326.7,553.7L326.7,553.7z"/>
        <path class="st2" d="M265.8,515.3c0.1,0,0.2,0,0.4,0l27.2,2.5c1.9,0.2,3,1.5,2.8,3.4l-0.3,3.4c-0.2,1.9-1.5,3-3.4,2.8l-27.2-2.5 c-1.1-0.1-1.8-0.6-2.2-1.1c-0.4-0.4-0.8-1.2-0.6-2.3l0.3-3.4C263,516.4,264.2,515.3,265.8,515.3z M292.4,521.6l-25.9-2.4l-0.2,2 l25.9,2.4L292.4,521.6z"/>
        <path class="st2" d="M209.1,470.3c3.7,0,7.6,0.9,11.5,2.7c4.3,2,7.7,4.6,10.2,7.7l0,0c2.5,3.2,4,6.9,4.4,10.9s-0.3,8-2.2,12.1 l-10.8,23.5c-1.8,4-4.4,7.2-7.7,9.5c-3.3,2.3-7,3.5-11.1,3.7c-4,0.2-8.2-0.7-12.5-2.6c-4.3-1.9-7.7-4.5-10.2-7.7 c-2.5-3.2-4-6.8-4.5-10.7c-0.4-3.9,0.3-7.9,2.1-11.8c0.5-1.1,1.8-2,3.8-1.5l0.2,0.1l4.3,1.7c0.6,0.3,1,0.7,1.3,1.2 c0.6,1,0.4,1.8,0.2,2.2l-0.2,0.5c-1.6,3.6-1.8,6.9-0.6,10c1.3,3.2,3.8,5.6,7.6,7.3c3.8,1.7,7.2,2,10.5,0.9c3.2-1.1,5.6-3.4,7.2-6.9 l11-24c1.6-3.5,1.8-6.8,0.5-10c-1.3-3.2-3.7-5.6-7.5-7.3s-7.2-2.1-10.5-1c-3.2,1.1-5.5,3.4-7.2,7c-0.5,1-1.2,1.4-1.7,1.6 c-0.5,0.2-1.4,0.3-2.5-0.3l-3.7-1.9c-0.6-0.3-1.5-0.8-1.8-1.7c-0.2-0.6-0.2-1.2,0.1-1.7l0.2-0.4c1.8-4,4.4-7.2,7.7-9.4 c3.3-2.3,7-3.5,11.1-3.7C208.4,470.3,208.8,470.3,209.1,470.3z M202.3,536.7c0.3,0,0.6,0,0.9,0c3.4-0.2,6.4-1.2,9.1-3.1 c2.7-1.9,4.8-4.5,6.4-7.9l10.8-23.5c1.6-3.4,2.2-6.9,1.9-10.2c-0.3-3.3-1.5-6.3-3.6-8.9l0,0c-2.1-2.7-5-4.9-8.8-6.6 c-3.7-1.7-7.3-2.5-10.7-2.3c-3.4,0.1-6.4,1.1-9.1,3c-2.5,1.7-4.5,4.1-6,7l2.6,1.3c2.1-4.1,5.1-6.8,9-8.2c4.1-1.4,8.6-1,13.3,1.1 c4.7,2.1,7.9,5.3,9.5,9.4c1.6,4.1,1.4,8.5-0.6,12.9l-11,24c-2,4.5-5.2,7.5-9.4,8.9c-4.2,1.4-8.6,1.1-13.3-1 c-4.7-2.1-7.9-5.3-9.5-9.3c-1.6-3.9-1.5-8,0.3-12.2l-2.7-1c-1.3,3.1-1.8,6.1-1.4,9.1c0.4,3.2,1.6,6.1,3.7,8.8s5.1,4.9,8.8,6.6 C195.9,536,199.1,536.7,202.3,536.7z M192.7,485.4L192.7,485.4L192.7,485.4z M184.7,509.7L184.7,509.7L184.7,509.7z"/>
        <path class="st2" d="M151.9,424.8L151.9,424.8c0.8,0,1.5,0.3,2.1,0.8l3.3,3c1.1,1,1.4,2.5,0.7,3.9l-4.5,10.1l19.3,17.4l9.6-5.6 c1.3-0.8,2.7-0.7,3.9,0.3l3.4,3c1,0.9,1.1,2,1.1,2.5s-0.3,1.5-1.5,2.3l-58,33.2c-1.3,0.8-2.8,0.7-3.9-0.3l-4.5-4 c-1.1-1-1.4-2.5-0.7-3.9l27.1-60.9c0.1-0.4,0.3-0.7,0.6-1C150.3,425.1,151,424.8,151.9,424.8z M151.4,428.5L151.4,428.5 L151.4,428.5z M154.5,431.2l-2.2-2l-26.6,59.7l3.9,3.5l56.7-32.4l-2.2-2l-10.4,6c-0.9,0.4-1.9,0.2-2.6-0.4l-20.8-18.8 c-0.3-0.3-1-1.1-0.7-2.5l0.1-0.3L154.5,431.2z M156.3,431.7L156.3,431.7L156.3,431.7z M173.6,460.8L173.6,460.8L173.6,460.8z M148.9,446.6c0.4,0,1,0.1,1.6,0.6l17.9,16.2c0.5,0.5,0.8,1.1,0.8,1.8c0,0.5-0.2,1.2-1,1.8l-0.2,0.1l-34.8,20.4 c-1.1,0.7-2.2,0.4-2.7-0.1c-0.6-0.5-1-1.5-0.4-2.7l16.7-36.7c0.4-1,1.2-1.3,1.6-1.4C148.6,446.7,148.7,446.6,148.9,446.6z M150.3,449.6L150.3,449.6L150.3,449.6z M147.9,450.1L147.9,450.1L147.9,450.1z M164.4,465l-14.9-13.5l-13.8,30.4L164.4,465z"/>
        <path class="st2" d="M100.5,400.5c0.3,0,0.5,0,0.7,0.1c0.5,0.1,1.3,0.5,1.9,1.5l11.5,19.2l23.3-13.9c1.6-1,3.3-0.5,4.3,1.1l2.2,3.6 c1,1.6,0.5,3.3-1.1,4.3l-54.5,32.5c-1.6,1-3.3,0.5-4.3-1.1l-20.6-34.4c-0.6-1-0.6-1.8-0.4-2.4s0.5-1.3,1.5-1.9l2.9-1.7 c1.6-1,3.3-0.5,4.3,1.1l0,0L89,436.6l17.4-10.4L94.9,407c-1-1.6-0.5-3.3,1.1-4.3l2.9-1.7C99.4,400.6,100,400.5,100.5,400.5z M114,425.7c-0.8,0-1.5-0.4-2-1.2l-11.9-19.9l-1.8,1.1l11.9,19.9c0.7,1.2,0.4,2.5-0.8,3.2l-19.8,11.8c-1.2,0.7-2.5,0.4-3.2-0.8 L69.2,411l-1.8,1.1l19.9,33.3l53.4-31.8l-1.5-2.5l-23.9,14.3C114.9,425.5,114.4,425.7,114,425.7z"/>
        <path class="st2" d="M106.2,321.8c1.4,0,2.5,0.9,2.9,2.4l9.5,39.1c0.3,1.1,0,1.9-0.3,2.4s-0.9,1.1-2,1.4l-61.7,15 c-1.1,0.3-1.9,0-2.4-0.3c-0.5-0.3-1.1-0.9-1.4-2l-9.5-39.1c-0.3-1.1,0-1.9,0.3-2.4s0.9-1.1,2-1.4l3.3-0.8c1.8-0.4,3.3,0.5,3.8,2.3 l0,0l7.8,31.9l19.7-4.8l-5.3-21.9c-0.3-1.1,0-1.9,0.3-2.4s0.9-1.1,2-1.4l3.3-0.8c1.1-0.3,1.9,0,2.4,0.3s1.1,0.9,1.4,2l5.3,21.9 l20-4.9l-7.8-31.9c-0.3-1.1,0-1.9,0.3-2.4s0.9-1.1,2-1.4l3.3-0.8C105.6,321.8,105.9,321.8,106.2,321.8z M114.8,363.5l-9.2-37.8 l-2,0.5l7.9,32.7c0.2,0.6,0.1,1.3-0.3,1.8c-0.3,0.5-0.8,0.9-1.5,1.1l-22.8,5.5c-1.3,0.3-2.5-0.4-2.9-1.7L78.5,343l-2,0.5l5.5,22.6 c0.3,1.3-0.4,2.5-1.7,2.9l-22.4,5.5c-0.6,0.2-1.3,0.1-1.8-0.3c-0.5-0.3-0.9-0.8-1.1-1.5L47.1,340l-2,0.5l9.2,37.8L114.8,363.5z M28.1,354.8c0.4,0,0.7,0.1,1,0.2l10.8,3.5c1.3,0.5,2.1,1.4,2.4,2.5l0.8,3.2c0.4,1.6-0.3,2.5-0.7,2.9c-0.4,0.4-1.4,1-2.9,0.5 l-10.6-2.9c-1.3-0.3-2.2-1.2-2.6-2.6l-1-3.9c-0.5-1.9,0.7-3.1,1.9-3.4C27.5,354.8,27.8,354.8,28.1,354.8z M27.9,358.5L27.9,358.5 C27.8,358.5,27.8,358.5,27.9,358.5z M38.6,362.1L38.6,362.1l-9.2-3l0.5,2.1l9.1,2.5L38.6,362.1z M38.7,362.1L38.7,362.1L38.7,362.1 z M41,365.7L41,365.7L41,365.7z"/>
        <path class="st2" d="M93.1,233.4c0.2,0,0.4,0,0.5,0.1c0.5,0.1,1,0.4,1.6,0.9l0.1,0.1c3.3,3.4,5.8,6.1,7.4,8.1l5.1-2.8l5.1-2.9 c0.6-0.3,1.3-0.4,2-0.3l0,0c0.7,0.1,1.3,0.5,1.7,1.1c0.4,0.6,0.6,1.4,0.4,2.3l-0.9,4.6c-0.2,1.2-0.9,2.1-1.9,2.6l-5.9,3.4 c1.8,3.2,3,6.3,3.5,9.3c0.7,3.5,0.6,7.2-0.1,11c-1.1,5.8-3.5,10.3-7,13.4c-3.6,3.2-8.3,4.3-13.7,3.3c-4.7-0.9-8.5-3-11.3-6.3 c-2.4-2.8-4.6-6.5-6.6-10.8c-4.5,2.4-7.8,3.9-10.1,4.6c-2.7,0.8-5.3,1-7.7,0.6c-4.9-0.9-8.6-3.4-11-7.1c-2.4-3.8-3-8.3-2-13.4 c1-5.2,3.3-9.2,6.8-12c3.6-2.8,7.9-3.8,12.7-2.9c4.2,0.8,7.6,2.8,10.2,6c2.1,2.7,4.1,6.1,6,10.3l13.3-7.6l2.8-1.5 c-1.6-1.9-3.4-3.9-5.3-5.9c-1.2-1.2-1.2-2.9-0.1-4.2l2.4-2.7C91.6,233.6,92.5,233.4,93.1,233.4z M102.3,246.7c-0.2,0-0.3,0-0.5,0 l-0.4-0.1l-0.7-0.5l-0.1-0.2c-1.4-1.8-3.9-4.6-7.4-8.2l-1.4,1.6c2.3,2.4,4.4,4.8,6.2,7.1c0.4,0.5,0.6,1.1,0.6,1.8 c0,0.4-0.2,1.1-1.1,1.7l-0.1,0.1l-4.3,2.3l-14.9,8.5l-0.2,0.1c-1.1,0.3-2.1-0.1-2.7-1l-0.2-0.3c-1.9-4.5-3.9-8.2-6.1-10.9 c-2-2.5-4.6-4-7.9-4.7c-3.7-0.7-6.9,0-9.6,2.1c-2.8,2.2-4.6,5.4-5.4,9.7c-0.8,4.2-0.3,7.7,1.5,10.7c1.8,2.9,4.6,4.7,8.5,5.4 c1.8,0.4,3.8,0.2,5.9-0.5c2.2-0.7,5.9-2.4,10.8-5.1c0.5-0.3,1-0.4,1.6-0.3c0.4,0.1,1.1,0.3,1.6,1.1l0.2,0.3 c1.9,4.7,4.1,8.4,6.6,11.3c2.3,2.7,5.3,4.4,9.2,5.1c4.3,0.8,7.7,0,10.5-2.4c2.9-2.5,4.8-6.3,5.8-11.3c0.6-3.3,0.7-6.5,0.1-9.5 s-1.9-6.2-3.8-9.4l-0.1-0.2c-0.3-0.6-0.3-1.2-0.1-1.8c0.2-0.6,0.6-1,1.2-1.3l7.1-4.1c0,0,0,0,0-0.1l0.5-2.6l-3.1,1.8l-5.4,3 C103.9,246.3,103.2,246.7,102.3,246.7z M112.2,243.9L112.2,243.9L112.2,243.9z M58.3,246.5c0.7,0,1.4,0.1,2.1,0.2 c3,0.6,5.5,2.2,7.4,4.7c1.7,2.3,3.5,5.5,5.2,9.4c0.3,0.5,0.3,1.2,0.1,1.8c-0.2,0.6-0.6,1.1-1.2,1.3c-4.4,2.4-7.6,3.9-9.5,4.5 c-2.1,0.7-4.1,0.9-5.9,0.5c-3.1-0.6-5.5-2.1-6.9-4.6c-1.4-2.4-1.8-5.2-1.2-8.4c0.6-3.2,2-5.7,4.2-7.4 C54.2,247.2,56.2,246.5,58.3,246.5z M69.1,261.2c-1.5-3.2-2.9-5.6-4.3-7.5c-1.4-1.8-3.1-2.9-5.1-3.3c-1.9-0.4-3.4,0-4.8,1.1 c-1.5,1.2-2.4,2.9-2.8,5.2c-0.4,2.3-0.2,4.2,0.7,5.8c0.9,1.5,2.3,2.4,4.4,2.8c1.2,0.2,2.5,0.1,4-0.4 C62.8,264.3,65.4,263.1,69.1,261.2z M70.2,260.6L70.2,260.6L70.2,260.6z M69.6,262.4L69.6,262.4L69.6,262.4z M100.2,251.1 c0.8,0,1.6,0.4,2,1.2c1.8,3,3.1,5.9,3.7,8.6l0,0c0.7,2.8,0.7,5.7,0.1,8.7c-0.8,4-2.4,7.1-4.8,9.1c-2.5,2.2-5.6,3-9.2,2.3 c-3.4-0.7-6.2-2.3-8.5-5c-2-2.4-4-5.8-6-9.9c-0.6-1.2-0.1-2.5,1.1-3.1c1.6-0.9,5.2-2.9,10.6-6c1-0.6,2.4-1.4,4.1-2.4l5.6-3.2 C99.5,251.1,99.8,251.1,100.2,251.1z M98.9,254.1L98.9,254.1L98.9,254.1z M94.5,277.4c1.6,0,3-0.5,4.3-1.6c1.7-1.5,2.9-3.9,3.5-7 c0.5-2.4,0.4-4.8-0.1-7.1l0,0c-0.5-2-1.3-4.1-2.6-6.4l-4.3,2.4c-1.7,0.9-3.1,1.7-4,2.3c-4.4,2.6-7.6,4.4-9.6,5.5 c1.6,3.3,3.2,5.9,4.9,7.9s3.7,3.2,6.3,3.7C93.4,277.4,94,277.4,94.5,277.4z M81.2,264.5L81.2,264.5L81.2,264.5z M80.6,266.3 L80.6,266.3L80.6,266.3z"/>
        <path class="st2" d="M107,135c3.8,0,7.5,1.3,11.2,4c3.1,2.2,5.2,4.9,6.3,8c0.8,2.1,1.1,4.4,0.9,6.8c2.5-1,5.1-1.5,7.7-1.4 c3.6,0.2,7.1,1.6,10.5,4c5,3.6,7.8,8.2,8.3,13.5c0.5,5.2-1.2,10.5-4.9,15.6l-13.2,18.2c-1.1,1.5-2.8,1.8-4.4,0.7L78,167.2 c-0.9-0.7-1.2-1.5-1.3-2s-0.1-1.4,0.6-2.3l12.8-17.7c3.8-5.3,8.3-8.6,13.2-9.7C104.5,135.1,105.8,135,107,135z M123.3,158.8 c-0.6,0-1-0.2-1.2-0.4c-0.3-0.2-1-0.9-0.8-2.2v-0.1c0.7-2.9,0.5-5.5-0.3-7.9c-0.9-2.3-2.5-4.4-5-6.2c-4-2.9-7.9-3.8-11.8-2.9 c-4,0.9-7.7,3.7-11,8.2l-12.4,17.1l50.2,36.5l12.8-17.7c3.2-4.4,4.6-8.8,4.2-13s-2.6-7.8-6.7-10.8c-2.8-2-5.6-3.1-8.4-3.3 c-2.8-0.2-5.5,0.6-8.3,2.3l-0.1,0.1C124,158.7,123.6,158.8,123.3,158.8z M106.6,141.8c2.8,0,5.5,0.9,8.1,2.8 c3.2,2.4,5.1,5.4,5.4,9.1c0.3,3.6-0.8,7.2-3.4,10.8l-9.3,12.9c-0.8,1.1-2.2,1.3-3.3,0.5L86,164.7c-0.5-0.4-0.9-0.9-1-1.5 s0.1-1.2,0.4-1.8l9.3-12.9c2.6-3.6,5.7-5.8,9.3-6.5C105,141.9,105.8,141.8,106.6,141.8z M105.2,174l8.5-11.7 c2.1-2.8,2.9-5.5,2.7-8.2c-0.2-2.6-1.5-4.7-3.9-6.4c-2.5-1.8-5-2.5-7.6-1.9c-2.7,0.5-5,2.2-7,5l-8.5,11.7L105.2,174z M88.2,161.7 L88.2,161.7L88.2,161.7z M130.6,158.5c2.9,0,5.8,1,8.6,3c3.5,2.6,5.6,5.7,6.1,9.5l0,0c0.5,3.7-0.5,7.4-3.2,11l-9.7,13.4 c-0.8,1.1-2.2,1.3-3.3,0.5l-19.6-14.2c-1.1-0.8-1.3-2.2-0.5-3.3l9.5-13.1c2.7-3.7,5.9-5.9,9.7-6.6 C128.9,158.5,129.8,158.5,130.6,158.5z M130.1,192l8.9-12.3c2-2.8,2.8-5.5,2.5-8.3l0,0c-0.4-2.7-1.9-5-4.6-6.9s-5.3-2.6-8.1-2.1 c-2.8,0.5-5.2,2.2-7.3,5.1l-8.7,12L130.1,192z"/>
        <path class="st2" d="M147.8,88.8c0.7,0,1.4,0.2,2,0.7l54.6,38.2c0.3,0.2,0.6,0.5,0.9,0.8c0.5,0.6,0.6,1.4,0.5,2.3 c-0.2,0.7-0.6,1.4-1.2,1.8l-3.6,2.7c-1.2,0.9-2.7,0.9-3.9,0L188,129l-20.8,15.6l3.6,10.5c0.6,1.4,0.2,2.8-1.1,3.8l-3.6,2.7 c-1.1,0.8-2.1,0.7-2.6,0.6s-1.4-0.6-1.9-1.9L140,97c-0.5-1.4-0.2-2.8,1.1-3.7l4.8-3.6C146.5,89,147.1,88.8,147.8,88.8z M201.4,130.2l-53.6-37.5l-4.2,3.1l21.1,61.9l2.4-1.8l-3.9-11.4c-0.2-1,0.2-1.9,0.9-2.4l22.4-16.8c0.3-0.3,1.3-0.8,2.6-0.2l0.2,0.1 l9.7,6.8L201.4,130.2z M166.3,145.2L166.3,145.2L166.3,145.2z M149.6,97.4c0.5,0,1,0.2,1.5,0.5l32.9,23.4c0.9,0.6,1,1.4,1,1.8 s-0.1,1.2-1,1.9l-19.4,14.5c-0.6,0.4-1.2,0.6-1.9,0.4c-0.4-0.1-1.1-0.4-1.6-1.3l-0.1-0.2l-13.4-38.1c-0.5-1.2,0-2.2,0.6-2.7 C148.6,97.5,149.1,97.4,149.6,97.4z M180.1,123.3l-27.2-19.4l11.1,31.5L180.1,123.3z M181.7,124.4L181.7,124.4L181.7,124.4z M163.5,138.1L163.5,138.1L163.5,138.1z"/>
        <path class="st2" d="M237.2,45.8c0.3,0,0.5,0,0.8,0.1c0.8,0.2,1.4,0.8,1.7,1.6c0.2,0.5,0.3,1.3-0.2,2.2l-12.6,30.8l34.5,25.7 c0.5,0.4,1,0.9,1.2,1.5c0.4,1.2,0,2.8-1.9,3.5l-4.6,1.6c-1.2,0.4-2.3,0.2-3.4-0.4L222.5,90l-4.3,9.6l7.2,20.6 c0.6,1.8-0.2,3.4-1.9,4l-4,1.4c-1.8,0.6-3.4-0.2-4-1.9l-20.9-59.9c-0.6-1.8,0.2-3.4,1.9-4l4-1.4c1.8-0.6,3.4,0.2,4,1.9l9,25.9 l15.7-36.5c0.4-1,1.2-1.8,2.3-2.2L236,46C236.4,45.9,236.8,45.8,237.2,45.8z M257.8,108.2l-34-25.3c-0.7-0.5-1.2-1.5-0.8-2.7V80 l12.1-29.7l-2.4,0.8c-0.1,0-0.1,0-0.1,0l-17.3,40.1c-0.4,1.2-1.5,1.6-2.3,1.5s-1.5-0.7-1.8-1.5l-10.1-29.1l-2.7,1l20.4,58.7l2.7-1 l-7.1-20.3c-0.2-0.5-0.2-1-0.1-1.6v-0.3l5.3-11.8c0.2-0.7,0.7-1.2,1.3-1.4c0.4-0.2,1.3-0.3,2.3,0.4l31.5,23.3L257.8,108.2z M221.1,88.9L221.1,88.9L221.1,88.9z M259.2,109.3L259.2,109.3L259.2,109.3z"/>
        <path class="st2" d="M314.6,38.6c1.1,0,1.8,0.4,2.2,0.8c0.4,0.4,0.9,1.1,0.9,2.2l0.1,3.4c0.1,1.9-1.2,3.2-3,3.2L282,49.1l0.6,20.2 l22.5-0.6c1.2,0,1.9,0.4,2.3,0.8s0.9,1.1,0.9,2.2l0.1,3.4c0.1,1.9-1.2,3.2-3,3.2l-22.5,0.6l0.6,20.6l32.8-0.9 c1.1,0,1.9,0.4,2.3,0.8s0.9,1.1,0.9,2.2l0.1,3.4c0.1,1.9-1.2,3.1-3,3.2l-40.2,1.1c-1.9,0.1-3.1-1.2-3.2-3l-1.8-63.5 c-0.1-1.9,1.2-3.1,3-3.2L314.6,38.6C314.5,38.6,314.5,38.6,314.6,38.6z M314,44.5l-0.1-2.1L275,43.5l1.7,62.1l38.9-1.1l-0.1-2.1 l-33.6,0.9c-0.7,0-1.3-0.2-1.7-0.6c-0.4-0.4-0.7-1-0.7-1.7l-0.6-23.4c0-1.4,0.9-2.4,2.3-2.4l23.2-0.6l-0.1-2.1l-23.2,0.6 c-1.3,0.1-2.4-0.9-2.4-2.3l-0.6-23.1c0-0.7,0.2-1.3,0.6-1.7s1-0.7,1.7-0.7L314,44.5z M314.7,46.4L314.7,46.4L314.7,46.4z M281.8,47.7L281.8,47.7L281.8,47.7z M282.5,70.8L282.5,70.8L282.5,70.8z M283.3,101L283.3,101L283.3,101z"/>
        <path class="st2" d="M353.1,43.8c0.3,0,0.6,0,1,0.1l23.2,6.6c5.7,1.6,9.8,4.8,12.3,9.3c2.5,4.6,3,9.7,1.4,15.4 c-1.3,4.6-3.7,8.2-7.2,10.8c-3,2.2-6.4,3.4-10.3,3.5l5.2,29.8c0.1,0.6,0.1,1,0,1.4c-0.4,1.3-1.7,2.4-3.7,1.8l-4.2-1.2 c-1.3-0.4-2.3-1.4-2.5-2.8l0,0l-5.1-30.9l-13-3.7l-7.5,26.2c-0.3,1.1-1,1.7-1.5,1.9c-0.5,0.3-1.3,0.5-2.4,0.2l-4.1-1.2 c-1.8-0.5-2.6-2.1-2.1-3.9L350.1,46c0.3-1.1,1-1.7,1.4-1.9C352,44,352.5,43.8,353.1,43.8z M372.9,85.8c3.3,0,6.2-0.9,8.7-2.8 c2.8-2,4.7-4.9,5.8-8.7c1.4-4.7,1-8.8-1-12.5s-5.3-6.1-10.1-7.5l-22.5-6.5l-17.2,59.8l2.8,0.8l7.7-26.9c0.4-1.3,1.6-2,2.9-1.6 l15.1,4.3c0.9,0.3,1.6,1,1.8,2l5.2,31.6l2.7,0.8l-5.3-30.3c-0.1-1,0.3-1.6,0.6-1.9c0.5-0.5,1.1-0.7,1.8-0.7 C372.2,85.8,372.5,85.8,372.9,85.8z M363.1,86.9L363.1,86.9L363.1,86.9z M371.7,89.5C371.6,89.5,371.6,89.5,371.7,89.5 C371.6,89.5,371.6,89.5,371.7,89.5z M357.5,51.1c0.2,0,0.5,0,0.7,0.1l16.7,4.8c4,1.1,6.9,3.4,8.7,6.7c1.8,3.3,2.1,6.9,1,10.9 s-3.4,6.9-6.6,8.7c-3.2,1.8-6.9,2.1-10.9,0.9l-16.7-4.8c-1.3-0.4-2-1.6-1.6-2.9l6.5-22.6c0.2-0.6,0.6-1.1,1.1-1.4 C356.7,51.2,357.1,51.1,357.5,51.1z M358.9,53.9L358.9,53.9L358.9,53.9z M371.6,80.1c1.6,0,3.1-0.4,4.5-1.1 c2.3-1.3,3.9-3.4,4.8-6.4s0.7-5.7-0.6-8.1c-1.3-2.4-3.4-4-6.4-4.8l-15.4-4.4l-5.7,19.9l15.4,4.4C369.4,79.9,370.5,80.1,371.6,80.1z"/>
        <path class="st2" d="M421.5,68.4c0.5,0,1.1,0.1,1.7,0.5l3.8,2.5c1.2,0.8,1.8,2,1.6,3.3l-2.1,29.5l26.2-13.9 c1.2-0.6,2.5-0.6,3.6,0.1l3.8,2.5c1.4,0.9,1.5,2,1.5,2.6s-0.3,1.7-1.7,2.4l-35.1,18.8l-14.9,22.9c-1,1.6-2.7,1.9-4.3,0.9l-3.6-2.3 c-1-0.6-1.3-1.4-1.4-1.9s-0.1-1.4,0.5-2.4l0,0l14.9-23l2.8-39.9v-0.2c0.2-0.7,0.3-0.9,0.4-1.2c0.5-0.7,1.1-1.1,1.9-1.2 C421.2,68.4,421.4,68.4,421.5,68.4z M424.8,74.5l-2.4-1.5l-2.7,38.3c-0.1,0.7-0.2,1.1-0.5,1.5l-14.6,22.6l2.4,1.6l14.6-22.6 c0.2-0.4,0.6-0.7,1.1-1l33.9-18.2l-2.4-1.5L425.4,109c-1,0.4-1.7,0-2-0.2c-0.3-0.2-0.9-0.7-1-1.8v-0.1L424.8,74.5z M416.1,110.7 L416.1,110.7L416.1,110.7z M424.9,116.4L424.9,116.4L424.9,116.4z M424.7,116.7L424.7,116.7L424.7,116.7L424.7,116.7z M402.7,134.9 L402.7,134.9L402.7,134.9z"/>
        <path class="st2" d="M458.7,138.1c0.8,0,1.6,0.4,2.3,1.1l18.1,20.4c0.8,0.9,0.9,1.7,0.9,2.3c0,0.6-0.3,1.4-1.1,2.1l-2.5,2.2 c-0.9,0.8-1.7,0.9-2.3,0.9s-1.4-0.3-2.1-1.1l-18.1-20.4c-1.2-1.4-1.1-3.2,0.3-4.4l2.5-2.2C457.3,138.4,458,138.1,458.7,138.1z M475.9,161.7l-17.2-19.4l-1.5,1.4l17.1,19.3L475.9,161.7z"/>
    </g>
    <g class="st1">
        <path class="st2" d="M204.3,310.1c-0.4,0.9-1.1,1.6-1.9,2.1c-0.8,0.5-1.7,0.8-2.7,0.9c-1,0-1.9-0.2-2.8-0.6 c-0.9-0.5-1.5-1.1-2.1-1.9c-0.5-0.8-0.8-1.7-0.8-2.7s0.1-1.9,0.6-2.7c0.4-0.8,1.1-1.5,1.9-2.1c0.8-0.5,1.7-0.8,2.7-0.9 c1,0,1.9,0.2,2.8,0.6c0.9,0.5,1.6,1.1,2.1,1.9s0.8,1.7,0.9,2.7C205,308.3,204.8,309.3,204.3,310.1z"/>
        <path class="st2" d="M217.2,268.9c-1.4,1.1-2.9,1.8-4.5,2s-3.2-0.1-4.7-0.9l-0.6-0.3c-0.4-0.2-0.5-0.5-0.3-1l2-3.9 c0.2-0.4,0.5-0.6,0.8-0.4l0.5,0.3c1,0.5,2.1,0.5,3.2-0.1c1.2-0.6,2.1-1.6,2.9-3c0.7-1.3,0.9-2.4,0.7-3.4c-0.2-0.9-0.8-1.6-1.6-2 c-0.6-0.3-1.2-0.4-1.8-0.2c-0.6,0.2-1.3,0.5-1.9,1c-0.7,0.5-1.6,1.4-3,2.6c-1.4,1.4-2.8,2.5-3.9,3.4c-1.2,0.8-2.5,1.4-3.9,1.7 c-1.4,0.3-2.9,0-4.4-0.8s-2.6-1.8-3.3-3.2c-0.7-1.3-1-2.9-0.9-4.6c0.1-1.7,0.6-3.4,1.5-5.2c1-1.9,2.2-3.4,3.6-4.6 c1.4-1.1,3-1.8,4.6-2s3.3,0.1,4.8,0.9l0.4,0.2c0.4,0.2,0.5,0.5,0.3,1l-2,3.9c-0.2,0.4-0.5,0.6-0.7,0.4l-0.4-0.2 c-1-0.5-2.2-0.6-3.3-0.1c-1.2,0.5-2.1,1.5-2.9,3c-0.6,1.2-0.8,2.2-0.7,3.1c0.2,0.9,0.7,1.6,1.6,2c0.6,0.3,1.2,0.4,1.9,0.2 c0.6-0.2,1.3-0.5,2-1.1s1.8-1.5,3.2-2.8c1.5-1.4,2.8-2.5,3.8-3.3s2.2-1.3,3.6-1.6c1.4-0.3,2.9,0,4.5,0.8c1.5,0.8,2.7,1.9,3.4,3.2 c0.7,1.4,1.1,2.9,0.9,4.7c-0.1,1.8-0.7,3.6-1.7,5.5C219.8,266.3,218.6,267.8,217.2,268.9z"/>
        <path class="st2" d="M246.1,233.3l-15.7-23.2c-0.3-0.4-0.2-0.7,0.2-1l3.7-2.5c0.4-0.3,0.7-0.2,1,0.2L251,230 c0.3,0.4,0.2,0.7-0.2,1l-3.7,2.5C246.7,233.7,246.4,233.6,246.1,233.3z"/>
        <path class="st2" d="M279.3,217.8l-2.1-27.9c0-0.5,0.2-0.7,0.7-0.8l4.3-0.3c0.4,0,0.7,0.1,0.9,0.4l11.8,16.6 c0.1,0.1,0.1,0.1,0.2,0.1s0.1-0.1,0.1-0.2l-1.3-17.1c0-0.5,0.2-0.7,0.7-0.8l4.4-0.3c0.5,0,0.7,0.2,0.8,0.7l2.1,27.9 c0,0.5-0.2,0.7-0.7,0.8l-4.3,0.3c-0.3,0-0.6-0.1-0.9-0.4L284.2,200c-0.1-0.1-0.1-0.1-0.2-0.1s-0.1,0.1-0.1,0.2l1.3,17.3 c0,0.5-0.2,0.7-0.7,0.8l-4.4,0.3C279.6,218.5,279.4,218.3,279.3,217.8z"/>
        <path class="st2" d="M335.5,225.2c-1-1.6-1.5-3.2-1.5-5s0.5-3.5,1.5-5.3l4.8-8.4c1-1.7,2.3-3.1,3.8-4s3.2-1.3,5.1-1.2 s3.7,0.7,5.6,1.8s3.3,2.4,4.3,3.9s1.6,3.1,1.6,4.9c0.1,1.7-0.4,3.4-1.4,5.1c-0.1,0.2-0.4,0.2-0.8,0.1l-4-2l-0.1-0.1 c-0.3-0.2-0.5-0.4-0.4-0.5l0.1-0.2c0.7-1.3,0.9-2.5,0.6-3.8c-0.3-1.2-1.2-2.2-2.4-3c-1.3-0.8-2.6-1-3.8-0.6 c-1.2,0.3-2.2,1.1-3,2.4l-5,8.8c-0.7,1.3-0.9,2.5-0.6,3.7s1.2,2.2,2.5,3c1.3,0.7,2.5,0.9,3.8,0.6c1.2-0.3,2.2-1.1,2.9-2.4 c0.1-0.1,0.2-0.2,0.3-0.2c0.2,0,0.3,0,0.5,0.2l3.8,2.4c0.4,0.3,0.6,0.5,0.5,0.5l-0.1,0.2c-1,1.7-2.2,2.9-3.7,3.8 c-1.5,0.8-3.2,1.2-5,1.1c-1.8-0.1-3.7-0.7-5.5-1.8C338,228.1,336.5,226.8,335.5,225.2z"/>
        <path class="st2" d="M400,262.3l-6.2-12c-0.1-0.1-0.2-0.2-0.3-0.1l-5.7,2.9c-0.1,0.1-0.2,0.2-0.1,0.3l4,7.8c0.2,0.4,0.1,0.7-0.3,1 l-3.3,1.7c-0.4,0.2-0.7,0.1-1-0.3l-4-7.8c-0.1-0.1-0.2-0.2-0.3-0.1l-6,3.1c-0.1,0.1-0.2,0.2-0.1,0.3l6.2,12c0.2,0.4,0.1,0.7-0.3,1 l-3.3,1.7c-0.4,0.2-0.7,0.1-1-0.3l-8.6-16.9c-0.2-0.4-0.1-0.7,0.3-1l24.9-12.7c0.4-0.2,0.7-0.1,1,0.3l8.6,16.9 c0.2,0.4,0.1,0.7-0.3,1l-3.3,1.7C400.6,262.8,400.3,262.7,400,262.3z"/>
        <path class="st2" d="M390.1,304.8c0.5-0.8,1.2-1.5,2.1-1.9c0.9-0.5,1.8-0.7,2.8-0.6c1,0,1.9,0.3,2.7,0.8c0.8,0.5,1.4,1.2,1.9,2.1 c0.4,0.9,0.6,1.8,0.6,2.8s-0.3,1.9-0.8,2.7c-0.5,0.8-1.2,1.4-2.1,1.9s-1.8,0.7-2.8,0.6c-1,0-1.9-0.3-2.7-0.8 c-0.8-0.5-1.5-1.2-1.9-2.1c-0.5-0.8-0.7-1.8-0.6-2.7C389.3,306.5,389.6,305.6,390.1,304.8z"/>
        <path class="st2" d="M230.1,352.6l2.9,3.9c0.3,0.4,0.2,0.7-0.2,1l-23.2,16.9c-0.4,0.3-0.7,0.2-1-0.2l-2.7-3.7 c-0.3-0.4-0.2-0.7,0.2-1l19-13.9c0.1-0.1,0.1-0.1,0.1-0.2s0-0.1-0.1-0.2l-2.9-2.6l-0.1,0c-0.3-0.3-0.2-0.6,0.1-0.9l2.6-1.9 c0.3-0.3,0.7-0.3,1,0l3.6,2.3C229.7,352.1,229.9,352.3,230.1,352.6z"/>
        <path class="st2" d="M272.5,393.9l-4.7,12.1c-0.6,1.4-1.4,2.6-2.6,3.4s-2.6,1.3-4.2,1.3c-1.6,0.1-3.3-0.2-5-0.9 c-1.7-0.7-3.2-1.6-4.3-2.7s-1.8-2.4-2.1-3.7c-0.3-1.4-0.2-2.8,0.4-4.2l0.4-0.9c0.2-0.5,0.5-0.6,0.9-0.4l4.3,1.7 c0.5,0.2,0.6,0.4,0.5,0.7l-0.2,0.4c-0.3,0.9-0.3,1.7,0,2.6c0.4,0.8,1,1.4,1.9,1.8c1,0.4,1.9,0.4,2.8,0s1.5-1,1.8-1.9l1.4-3.7 c0-0.1,0-0.2,0-0.2s-0.1,0-0.2,0c-1.5,0.5-3.1,0.4-4.9-0.3c-1.6-0.6-2.9-1.6-3.9-2.8c-1-1.2-1.6-2.7-1.7-4.4 c-0.2-1.5,0.1-3.1,0.8-5c0.6-1.6,1.4-2.8,2.4-3.9c1.3-1.3,2.9-2.1,4.7-2.5c1.8-0.3,3.7-0.1,5.8,0.7c2.1,0.8,3.7,2,4.8,3.5 c1.1,1.5,1.7,3.3,1.7,5.2C273.4,391,273.1,392.4,272.5,393.9z M266.9,391.5c0.4-1,0.5-1.8,0.4-2.7c-0.1-1.4-0.9-2.4-2.4-3 c-1.4-0.5-2.6-0.3-3.7,0.6c-0.7,0.5-1.2,1.3-1.6,2.3c-0.4,1.1-0.5,2-0.4,2.9c0.3,1.3,1,2.2,2.3,2.8c1.4,0.6,2.7,0.4,3.7-0.5 C265.9,393.4,266.5,392.6,266.9,391.5z"/>
        <path class="st2" d="M314.6,415.5l-0.9-3.5c-0.1-0.3,0-0.6,0.2-1c0.9-1.4,1.7-3,2.7-4.7c0.9-1.7,1.6-2.9,1.9-3.5 c0.9-1.8,1.6-3.1,2.1-3.9c1.8-3.5,2.6-5.9,2.2-7.2c-0.2-1-0.8-1.7-1.6-2.1c-0.9-0.5-1.8-0.5-3-0.3c-1.1,0.3-1.9,0.8-2.5,1.6 c-0.5,0.8-0.7,1.7-0.4,2.7l0.2,0.8c0.1,0.5-0.1,0.8-0.5,0.9l-4.5,1.1c-0.5,0.1-0.8-0.1-0.9-0.5l-0.4-1.8c-0.3-1.5-0.2-3,0.4-4.3 c0.6-1.4,1.5-2.5,2.8-3.5s2.8-1.7,4.6-2.1c2-0.5,3.8-0.6,5.4-0.2s3,1.1,4.1,2.1c1.1,1.1,1.9,2.3,2.2,3.9c0.3,1.2,0.3,2.4,0,3.8 s-0.8,2.9-1.6,4.6c-0.8,1.6-2.2,4.2-4.2,7.8c0,0-0.5,0.9-1.4,2.6c-0.1,0.1-0.1,0.1,0,0.2s0.1,0.1,0.2,0.1l11-2.7 c0.5-0.1,0.8,0.1,0.9,0.5l0.9,3.6c0.1,0.5-0.1,0.8-0.5,0.9l-18.4,4.6C315,416.2,314.7,416,314.6,415.5z"/>
        <path class="st2" d="M377,381.2c-2.5,0.3-5-0.6-7.3-2.5l-8.7-7.3c-2.3-1.9-3.5-4.1-3.7-6.7c-0.2-2.5,0.8-5,2.8-7.4 s4.3-3.8,6.8-4.1s4.9,0.5,7.2,2.4l8.7,7.3c2.3,2,3.6,4.2,3.8,6.8c0.2,2.6-0.8,5-2.8,7.5C381.8,379.5,379.5,380.9,377,381.2z M380.9,370.6c-0.1-1.1-0.7-2.1-1.7-2.9l-9.1-7.6c-1-0.8-2.1-1.2-3.2-1.2c-1.1,0.1-2.1,0.6-2.9,1.6s-1.2,2-1,3.1 c0.1,1.1,0.7,2.1,1.7,2.9l9.1,7.6c1,0.8,2.1,1.2,3.2,1.2c1.1-0.1,2-0.6,2.9-1.6C380.7,372.8,381,371.7,380.9,370.6z"/>
    </g>
</svg>
