<svg width="165" height="60" viewBox="0 0 165 60" xmlns="http://www.w3.org/2000/svg">
    <path d="M31.6,21.6c0,2.4-0.3,4.6-1,6.6c-0.7,2-1.6,3.7-3,5.1c-1.3,1.4-2.9,2.5-4.9,3.3c-1.9,0.8-4.2,1.2-6.8,1.2H1.5v-2.3h1.8 c0.3,0,0.6,0,0.9-0.1c0.3-0.1,0.5-0.2,0.7-0.4c0.2-0.2,0.4-0.5,0.5-0.9c0.1-0.4,0.2-0.9,0.2-1.5V11.5c0-0.6-0.1-1.1-0.2-1.4 C5.3,9.7,5.1,9.4,4.9,9.3C4.7,9.1,4.5,8.9,4.2,8.9C3.9,8.8,3.6,8.8,3.3,8.8H1.5V6.5H16c2.4,0,4.6,0.3,6.5,1 c1.9,0.6,3.6,1.6,4.9,2.9c1.3,1.3,2.4,2.8,3.1,4.7S31.6,19.1,31.6,21.6z M24.1,21.6c0-4.2-0.8-7.3-2.3-9.4c-1.5-2-3.8-3.1-6.8-3.1 h-2.5v26H15c1.5,0,2.8-0.3,4-0.9c1.1-0.6,2.1-1.5,2.9-2.7c0.8-1.2,1.3-2.6,1.7-4.3C24,25.6,24.1,23.7,24.1,21.6z"/>
    <path d="M34.8,35.5c0.3,0,0.7,0,1-0.1s0.7-0.2,1-0.4c0.3-0.2,0.6-0.5,0.8-0.9c0.2-0.4,0.3-0.9,0.3-1.5V19.3c0-0.6-0.1-1.1-0.3-1.4 c-0.2-0.4-0.5-0.6-0.8-0.8c-0.3-0.2-0.7-0.3-1-0.4c-0.4-0.1-0.7-0.1-1-0.1h-0.5v-2.3h10.3v18.4c0,0.6,0.1,1.1,0.3,1.5 c0.2,0.4,0.5,0.7,0.8,0.9c0.3,0.2,0.6,0.3,1,0.4c0.4,0.1,0.7,0.1,1,0.1h0.5v2.3h-14v-2.3H34.8z M37.3,7.2c0-0.6,0.1-1,0.3-1.4 c0.2-0.4,0.5-0.7,0.8-1c0.3-0.3,0.7-0.4,1.2-0.6C40.1,4.1,40.6,4,41.1,4c0.5,0,1,0.1,1.4,0.2c0.5,0.1,0.9,0.3,1.2,0.6 c0.3,0.3,0.6,0.6,0.8,1c0.2,0.4,0.3,0.9,0.3,1.4c0,0.5-0.1,1-0.3,1.4c-0.2,0.4-0.5,0.7-0.8,1S43,10,42.5,10.1 c-0.5,0.1-0.9,0.2-1.4,0.2c-0.5,0-1-0.1-1.5-0.2s-0.8-0.3-1.2-0.6c-0.3-0.3-0.6-0.6-0.8-1C37.4,8.2,37.3,7.7,37.3,7.2z"/>
    <path d="M58.8,38.3c-1.6,0-2.9-0.1-4.1-0.4c-1.1-0.3-2-0.6-2.8-1.1c-0.7-0.5-1.2-1-1.5-1.6c-0.3-0.6-0.5-1.3-0.5-2 c0-0.7,0.1-1.3,0.4-1.7s0.6-0.8,1.1-1c0.4-0.2,0.9-0.4,1.3-0.5c0.5-0.1,0.9-0.1,1.3-0.1c0,0.9,0.1,1.7,0.3,2.5 c0.2,0.7,0.6,1.3,1,1.9c0.4,0.5,0.9,0.9,1.5,1.2c0.6,0.3,1.2,0.4,1.9,0.4c0.8,0,1.4-0.1,2-0.2c0.6-0.2,1-0.4,1.4-0.7 c0.4-0.3,0.6-0.6,0.8-1s0.3-0.7,0.3-1.1c0-0.5-0.1-0.9-0.3-1.3c-0.2-0.4-0.5-0.7-0.9-1.1c-0.4-0.3-1-0.7-1.7-1 c-0.7-0.3-1.6-0.7-2.6-1c-1.2-0.4-2.2-0.9-3.1-1.3c-0.9-0.5-1.7-1-2.3-1.6c-0.6-0.6-1.1-1.3-1.4-2c-0.3-0.8-0.5-1.6-0.5-2.6 c0-1.2,0.2-2.2,0.7-3.1c0.5-0.9,1.1-1.6,1.9-2.2c0.8-0.6,1.8-1,3-1.3c1.2-0.3,2.4-0.4,3.9-0.4c1.4,0,2.6,0.1,3.5,0.4 c1,0.2,1.8,0.5,2.4,0.9c0.6,0.4,1.1,0.8,1.4,1.3c0.3,0.5,0.4,1,0.4,1.5c0,1-0.3,1.7-1,2.3c-0.7,0.5-1.8,0.8-3.4,0.8 c0-1.5-0.3-2.6-1-3.4c-0.7-0.8-1.6-1.2-2.9-1.2c-0.5,0-0.9,0.1-1.4,0.2c-0.4,0.1-0.8,0.3-1.1,0.5c-0.3,0.2-0.6,0.5-0.8,0.8 c-0.2,0.3-0.3,0.7-0.3,1.2c0,0.5,0.1,0.9,0.3,1.3c0.2,0.4,0.5,0.7,0.9,1.1c0.5,0.3,1.1,0.7,1.8,1s1.8,0.7,3,1.1 c1,0.3,1.9,0.7,2.7,1.2c0.8,0.4,1.5,0.9,2.1,1.5c0.6,0.6,1.1,1.2,1.4,1.9c0.3,0.7,0.5,1.6,0.5,2.5c0,1.2-0.2,2.3-0.6,3.3 c-0.4,1-1,1.8-1.9,2.4c-0.8,0.7-1.8,1.2-3,1.5C61.7,38.1,60.3,38.3,58.8,38.3z"/>
    <path d="M83.5,34.8c0.6,0,1.1,0,1.6-0.1c0.5-0.1,1-0.2,1.5-0.3v2.9c-0.2,0.1-0.5,0.2-0.9,0.4c-0.4,0.1-0.9,0.2-1.4,0.4 c-0.5,0.1-1.1,0.2-1.8,0.3c-0.7,0.1-1.4,0.1-2.1,0.1c-1,0-1.9-0.1-2.7-0.4c-0.8-0.2-1.5-0.6-2-1.2s-1-1.3-1.3-2.1s-0.5-2-0.5-3.3 V17.3h-3.3V15c0.9,0,1.8-0.2,2.5-0.6c0.7-0.4,1.3-0.8,1.8-1.3c0.9-0.9,1.6-2.4,2-4.4h3.7v5.5h5.6v3h-5.6v13.6 c0,1.3,0.2,2.3,0.7,2.9C81.7,34.5,82.4,34.8,83.5,34.8z"/>
    <path d="M102.6,37.9H87.9v-2.3H88c0.5,0,1,0,1.4-0.1c0.4-0.1,0.8-0.2,1.1-0.4s0.5-0.5,0.7-1c0.2-0.4,0.2-1,0.2-1.7V19.6 c0-0.6-0.1-1.2-0.2-1.6c-0.2-0.4-0.4-0.7-0.6-0.9s-0.6-0.4-1-0.4s-0.8-0.1-1.3-0.1h-0.1v-2.3H97l0.9,3.4h0.2 c0.3-0.7,0.6-1.2,0.9-1.7s0.8-0.9,1.2-1.2c0.5-0.3,1-0.6,1.7-0.7c0.7-0.2,1.4-0.2,2.3-0.2c1.7,0,3,0.3,3.8,0.9 c0.8,0.6,1.2,1.5,1.2,2.7c0,1.3-0.5,2.4-1.5,3.1c-1,0.7-2.3,1.1-4.1,1.1c0-0.6,0-1.1-0.1-1.6c-0.1-0.5-0.2-0.8-0.3-1.1 s-0.4-0.5-0.7-0.7c-0.3-0.2-0.6-0.2-1-0.2c-0.5,0-1,0.1-1.3,0.4c-0.4,0.3-0.7,0.6-0.9,1s-0.5,0.9-0.6,1.4s-0.3,1-0.4,1.6 c-0.1,0.5-0.2,1-0.2,1.5c0,0.5,0,0.9,0,1.2v7.6c0,0.6,0.1,1.2,0.2,1.6c0.2,0.4,0.4,0.7,0.6,0.9c0.3,0.2,0.6,0.3,1,0.4 s0.8,0.1,1.2,0.1h1.4V37.9z"/>
    <path d="M110.8,35.5c0.3,0,0.7,0,1-0.1s0.7-0.2,1-0.4c0.3-0.2,0.6-0.5,0.8-0.9c0.2-0.4,0.3-0.9,0.3-1.5V19.3c0-0.6-0.1-1.1-0.3-1.4 c-0.2-0.4-0.5-0.6-0.8-0.8c-0.3-0.2-0.7-0.3-1-0.4c-0.4-0.1-0.7-0.1-1-0.1h-0.5v-2.3h10.3v18.4c0,0.6,0.1,1.1,0.3,1.5 c0.2,0.4,0.5,0.7,0.8,0.9c0.3,0.2,0.6,0.3,1,0.4c0.4,0.1,0.7,0.1,1,0.1h0.5v2.3h-14v-2.3H110.8z M113.4,7.2c0-0.6,0.1-1,0.3-1.4 c0.2-0.4,0.5-0.7,0.8-1c0.3-0.3,0.7-0.4,1.2-0.6c0.5-0.1,0.9-0.2,1.5-0.2c0.5,0,1,0.1,1.4,0.2c0.5,0.1,0.9,0.3,1.2,0.6 c0.3,0.3,0.6,0.6,0.8,1c0.2,0.4,0.3,0.9,0.3,1.4c0,0.5-0.1,1-0.3,1.4c-0.2,0.4-0.5,0.7-0.8,1s-0.7,0.5-1.2,0.6 c-0.5,0.1-0.9,0.2-1.4,0.2c-0.5,0-1-0.1-1.5-0.2s-0.8-0.3-1.2-0.6c-0.3-0.3-0.6-0.6-0.8-1C113.5,8.2,113.4,7.7,113.4,7.2z"/>
    <path d="M137.6,38.3c-1.6,0-3.1-0.2-4.4-0.6c-1.3-0.4-2.5-1.1-3.4-2.1c-1-1-1.7-2.2-2.2-3.8c-0.5-1.5-0.8-3.4-0.8-5.7 c0-2.4,0.3-4.4,0.8-6c0.6-1.6,1.3-2.9,2.3-3.8c1-1,2.1-1.6,3.4-2.1c1.3-0.4,2.7-0.6,4.3-0.6c1.4,0,2.7,0.1,3.8,0.4 c1.1,0.2,2,0.6,2.7,1c0.7,0.4,1.3,0.9,1.7,1.5c0.4,0.6,0.6,1.2,0.6,1.8c0,0.5-0.1,0.9-0.2,1.4c-0.2,0.5-0.5,0.8-0.9,1.2 c-0.4,0.3-1,0.6-1.7,0.8c-0.7,0.2-1.7,0.3-2.8,0.3c0-0.8,0-1.5-0.1-2.2c-0.1-0.7-0.2-1.3-0.5-1.8s-0.5-0.9-0.9-1.2 c-0.4-0.3-0.8-0.5-1.4-0.5c-0.6,0-1.2,0.2-1.7,0.5c-0.5,0.3-0.9,0.8-1.3,1.6c-0.4,0.7-0.6,1.7-0.8,3s-0.3,2.8-0.3,4.7 c0,3,0.4,5.2,1.2,6.7c0.8,1.5,2.1,2.2,4,2.2c0.8,0,1.5-0.1,2.1-0.3s1.3-0.4,1.8-0.8c0.5-0.3,1-0.7,1.4-1.1s0.7-0.9,1-1.4 c0.4,0.2,0.6,0.5,0.8,0.9s0.3,0.7,0.3,1.1c0,0.6-0.2,1.1-0.5,1.7c-0.3,0.6-0.8,1.1-1.5,1.6c-0.7,0.5-1.6,0.8-2.7,1.1 S139.1,38.3,137.6,38.3z"/>
    <path d="M161.2,34.8c0.6,0,1.1,0,1.6-0.1c0.5-0.1,1-0.2,1.5-0.3v2.9c-0.2,0.1-0.5,0.2-0.9,0.4c-0.4,0.1-0.9,0.2-1.4,0.4 c-0.5,0.1-1.1,0.2-1.8,0.3c-0.7,0.1-1.4,0.1-2.1,0.1c-1,0-1.9-0.1-2.7-0.4c-0.8-0.2-1.5-0.6-2-1.2s-1-1.3-1.3-2.1s-0.5-2-0.5-3.3 V17.3h-3.3V15c0.9,0,1.8-0.2,2.5-0.6c0.7-0.4,1.3-0.8,1.8-1.3c0.9-0.9,1.6-2.4,2-4.4h3.7v5.5h5.6v3h-5.6v13.6 c0,1.3,0.2,2.3,0.7,2.9C159.4,34.5,160.2,34.8,161.2,34.8z"/>
    <path d="M35.5,50.8l2.3-5.7h0.6l2.3,5.7H40l-0.7-1.7h-2.4l-0.7,1.7H35.5z M38.1,45.9l-1.1,2.6h2.1L38.1,45.9z"/>
    <path d="M43.5,50.8v-5.7h2.4c0.3,0,0.5,0.1,0.7,0.2c0.2,0.1,0.4,0.2,0.5,0.4c0.2,0.2,0.3,0.4,0.4,0.6c0.1,0.2,0.1,0.4,0.1,0.7 c0,0.2,0,0.4-0.1,0.6c-0.1,0.2-0.1,0.4-0.2,0.5c-0.1,0.1-0.2,0.3-0.4,0.4c-0.1,0.1-0.3,0.2-0.5,0.2l1.4,2.2H47l-1.3-2h-1.5v2H43.5z M44.2,48.1h1.7c0.1,0,0.3,0,0.4-0.1c0.1-0.1,0.2-0.2,0.3-0.3c0.1-0.1,0.2-0.2,0.2-0.4c0-0.1,0.1-0.3,0.1-0.4c0-0.2,0-0.3-0.1-0.5 c-0.1-0.1-0.1-0.3-0.2-0.4c-0.1-0.1-0.2-0.2-0.3-0.3c-0.1-0.1-0.3-0.1-0.4-0.1h-1.7V48.1z"/>
    <path d="M54.8,45.7h-2v5h-0.7v-5h-2v-0.6h4.6V45.7z"/>
    <path d="M57.6,50.8v-5.7h0.7v5.7H57.6z"/>
    <path d="M65,46.3c-0.1-0.1-0.1-0.1-0.3-0.2s-0.2-0.1-0.4-0.2c-0.1-0.1-0.3-0.1-0.4-0.1c-0.2,0-0.3-0.1-0.5-0.1 c-0.4,0-0.8,0.1-1,0.2c-0.2,0.2-0.3,0.4-0.3,0.7c0,0.2,0,0.3,0.1,0.4c0.1,0.1,0.2,0.2,0.3,0.3s0.3,0.1,0.5,0.2 c0.2,0.1,0.4,0.1,0.7,0.2c0.3,0.1,0.6,0.1,0.8,0.2c0.2,0.1,0.4,0.2,0.6,0.3s0.3,0.3,0.4,0.4s0.1,0.4,0.1,0.6c0,0.3-0.1,0.5-0.2,0.7 c-0.1,0.2-0.3,0.4-0.4,0.5s-0.4,0.2-0.7,0.3c-0.2,0.1-0.5,0.1-0.8,0.1c-0.4,0-0.9-0.1-1.2-0.2c-0.4-0.1-0.7-0.3-1.1-0.6l0.3-0.6 c0.1,0.1,0.2,0.2,0.3,0.3c0.1,0.1,0.3,0.2,0.5,0.2c0.2,0.1,0.4,0.1,0.6,0.2c0.2,0,0.4,0.1,0.6,0.1c0.4,0,0.7-0.1,0.9-0.2 c0.2-0.1,0.3-0.4,0.3-0.6c0-0.2,0-0.3-0.1-0.4s-0.2-0.2-0.3-0.3c-0.1-0.1-0.3-0.2-0.5-0.2c-0.2-0.1-0.4-0.1-0.7-0.2 c-0.3-0.1-0.5-0.1-0.8-0.2c-0.2-0.1-0.4-0.2-0.5-0.3c-0.1-0.1-0.3-0.2-0.3-0.4s-0.1-0.4-0.1-0.6c0-0.3,0.1-0.5,0.2-0.7 s0.2-0.4,0.4-0.5c0.2-0.1,0.4-0.3,0.6-0.3c0.2-0.1,0.5-0.1,0.8-0.1c0.4,0,0.7,0.1,1,0.2c0.3,0.1,0.6,0.3,0.8,0.5L65,46.3z"/>
    <path d="M67.9,50.8l2.3-5.7h0.6l2.3,5.7h-0.8l-0.7-1.7h-2.4l-0.7,1.7H67.9z M70.5,45.9l-1.1,2.6h2.1L70.5,45.9z"/>
    <path d="M76.6,46.4v4.3h-0.7v-5.7h0.6l3.5,4.4v-4.4h0.7v5.7h-0.6L76.6,46.4z"/>
    <path d="M92.4,49.3c0,0.2,0,0.4-0.1,0.6c-0.1,0.2-0.2,0.3-0.4,0.5s-0.3,0.2-0.5,0.3c-0.2,0.1-0.4,0.1-0.6,0.1h-2.7v-5.7h2.8 c0.2,0,0.4,0,0.5,0.1c0.2,0.1,0.3,0.2,0.4,0.3c0.1,0.1,0.2,0.3,0.3,0.5c0.1,0.2,0.1,0.3,0.1,0.5c0,0.3-0.1,0.5-0.2,0.8 c-0.1,0.2-0.3,0.4-0.6,0.5c0.3,0.1,0.6,0.3,0.8,0.5S92.4,48.9,92.4,49.3z M88.8,45.7v1.9h1.8c0.1,0,0.2,0,0.4-0.1s0.2-0.1,0.3-0.2 c0.1-0.1,0.1-0.2,0.2-0.3c0-0.1,0.1-0.2,0.1-0.4c0-0.1,0-0.3-0.1-0.4c0-0.1-0.1-0.2-0.2-0.3c-0.1-0.1-0.2-0.2-0.3-0.2 c-0.1,0-0.2-0.1-0.3-0.1H88.8z M91.7,49.2c0-0.1,0-0.3-0.1-0.4s-0.1-0.2-0.2-0.3s-0.2-0.2-0.3-0.2c-0.1-0.1-0.2-0.1-0.4-0.1h-2v2h2 c0.1,0,0.3,0,0.4-0.1c0.1-0.1,0.2-0.1,0.3-0.2c0.1-0.1,0.2-0.2,0.2-0.3C91.7,49.4,91.7,49.3,91.7,49.2z"/>
    <path d="M94.7,50.8l2.3-5.7h0.6l2.3,5.7h-0.8l-0.7-1.7h-2.4l-0.7,1.7H94.7z M97.4,45.9l-1.1,2.6h2.1L97.4,45.9z"/>
    <path d="M102.7,50.8v-5.7h0.7v3.1l2.9-3.1h0.8l-2.3,2.5l2.4,3.2h-0.8l-2.1-2.8l-1,1v1.7H102.7z"/>
    <path d="M113.8,50.1v0.6h-3.9v-5.7h3.8v0.6h-3.1v1.8h2.7v0.6h-2.7v2H113.8z"/>
    <path d="M116.8,50.8v-5.7h2.4c0.2,0,0.5,0.1,0.7,0.2c0.2,0.1,0.4,0.2,0.5,0.4c0.2,0.2,0.3,0.4,0.4,0.6c0.1,0.2,0.1,0.4,0.1,0.7 c0,0.2,0,0.4-0.1,0.6s-0.1,0.4-0.2,0.5c-0.1,0.1-0.2,0.3-0.4,0.4c-0.1,0.1-0.3,0.2-0.5,0.2l1.4,2.2h-0.8l-1.3-2h-1.5v2H116.8z M117.5,48.1h1.7c0.1,0,0.3,0,0.4-0.1c0.1-0.1,0.2-0.2,0.3-0.3s0.2-0.2,0.2-0.4s0.1-0.3,0.1-0.4c0-0.2,0-0.3-0.1-0.5 c-0.1-0.1-0.1-0.3-0.2-0.4c-0.1-0.1-0.2-0.2-0.3-0.3c-0.1-0.1-0.3-0.1-0.4-0.1h-1.7V48.1z"/>
    <path d="M124,45.1l1.7,3l1.7-3h0.8l-2.2,3.6v2.1h-0.7v-2.1l-2.2-3.6H124z"/>
</svg>
