<svg width="120" height="25" viewBox="0 0 120 25" fill="none" xmlns="http://www.w3.org/2000/svg">
<g clip-path="url(#clip0_2075_2661)">
<rect width="25" height="25" rx="5.24388" fill="white"/>
<rect width="25" height="25" rx="5.24388" fill="url(#paint0_linear_2075_2661)"/>
<g filter="url(#filter0_d_2075_2661)">
<path d="M0 0H25V25V25C13.3258 25 7.48869 25 3.81733 21.4285C3.73427 21.3477 3.65232 21.2657 3.57152 21.1827C0 17.5113 0 11.6742 0 0V0Z" fill="url(#paint1_linear_2075_2661)"/>
</g>
<g filter="url(#filter1_d_2075_2661)">
<path d="M0 -4H29V25C29 25 27.5817 25 25.4326 25C18.7644 25 7.87027 18.4965 7.87027 18.4965C7.87027 18.4965 3.81394 15.1923 2.23135 12.3427C0.699261 9.58406 0 4.57661 0 4.57661V-4Z" fill="url(#paint2_linear_2075_2661)"/>
</g>
<g filter="url(#filter2_d_2075_2661)">
<path d="M31 26C10.8244 26 0 14.5696 0 3C0 3 0.609914 12.598 5.48169 14.7576C9.68274 16.6198 17.1776 14.5728 18.6327 16.5458C20.0878 18.5187 18.1801 20.8458 20.3269 22.681C22.4737 24.5162 27.5793 25.887 31 26Z" fill="url(#paint3_linear_2075_2661)"/>
</g>
</g>
<path d="M39.3735 21C37.8409 21 36.5253 20.6721 35.4265 20.0164C34.3277 19.3461 33.4819 18.4208 32.8892 17.2404C32.2964 16.0455 32 14.6685 32 13.1093C32 11.5501 32.2964 10.173 32.8892 8.97814C33.4819 7.78324 34.3277 6.85064 35.4265 6.18033C36.5253 5.51002 37.8409 5.17486 39.3735 5.17486C41.1952 5.17486 42.6843 5.63388 43.8409 6.55191C45.012 7.45537 45.7421 8.73042 46.0313 10.377H42.9735C42.7855 9.54645 42.3807 8.898 41.759 8.43169C41.1518 7.95082 40.3421 7.71038 39.3301 7.71038C37.9277 7.71038 36.8289 8.19126 36.0337 9.15301C35.2385 10.1148 34.841 11.4335 34.841 13.1093C34.841 14.7851 35.2385 16.1038 36.0337 17.0656C36.8289 18.0128 37.9277 18.4863 39.3301 18.4863C40.3421 18.4863 41.1518 18.2678 41.759 17.8306C42.3807 17.3789 42.7855 16.7596 42.9735 15.9727H46.0313C45.7421 17.5464 45.012 18.7778 43.8409 19.6667C42.6843 20.5556 41.1952 21 39.3735 21Z" fill="black"/>
<path d="M51.2644 21C50.3391 21 49.5801 20.8543 48.9873 20.5628C48.3945 20.2568 47.9535 19.8561 47.6644 19.3607C47.3752 18.8652 47.2307 18.3188 47.2307 17.7213C47.2307 16.7158 47.621 15.8998 48.4017 15.2732C49.1825 14.6466 50.3535 14.3333 51.915 14.3333H54.6475V14.071C54.6475 13.3279 54.4379 12.7814 54.0186 12.4317C53.5993 12.082 53.0788 11.9071 52.4572 11.9071C51.8933 11.9071 51.4017 12.0455 50.9825 12.3224C50.5632 12.5847 50.3029 12.9781 50.2017 13.5027H47.4909C47.5632 12.7158 47.8234 12.031 48.2716 11.4481C48.7343 10.8652 49.327 10.4208 50.0499 10.1148C50.7728 9.79417 51.5825 9.63388 52.4788 9.63388C54.0114 9.63388 55.2186 10.02 56.1005 10.7923C56.9824 11.5647 57.4234 12.6576 57.4234 14.071V20.7377H55.0596L54.7993 18.9891C54.4812 19.572 54.0331 20.0528 53.4547 20.4317C52.8909 20.8106 52.1608 21 51.2644 21ZM51.8933 18.8142C52.6885 18.8142 53.3029 18.5519 53.7367 18.0273C54.1849 17.5027 54.4668 16.8543 54.5824 16.082H52.2186C51.4813 16.082 50.9535 16.2204 50.6355 16.4973C50.3174 16.7596 50.1584 17.0874 50.1584 17.4809C50.1584 17.9035 50.3174 18.2313 50.6355 18.4645C50.9535 18.6976 51.3728 18.8142 51.8933 18.8142Z" fill="black"/>
<path d="M59.2049 20.7377V5H61.9808V20.7377H59.2049Z" fill="black"/>
<path d="M69.1762 21C68.0919 21 67.1305 20.7669 66.2919 20.3005C65.4534 19.8342 64.7955 19.1785 64.3184 18.3333C63.8413 17.4882 63.6028 16.5118 63.6028 15.4044C63.6028 14.2823 63.8341 13.2842 64.2967 12.4098C64.7738 11.5355 65.4244 10.8579 66.2485 10.377C67.0871 9.8816 68.0702 9.63388 69.1979 9.63388C70.2533 9.63388 71.1859 9.86703 71.9955 10.3333C72.8051 10.7996 73.4341 11.4408 73.8822 12.2568C74.3449 13.0583 74.5762 13.9545 74.5762 14.9454C74.5762 15.1056 74.569 15.2732 74.5545 15.4481C74.5545 15.623 74.5473 15.8051 74.5328 15.9945H66.357C66.4148 16.8397 66.704 17.5027 67.2244 17.9836C67.7594 18.4645 68.4027 18.7049 69.1545 18.7049C69.7184 18.7049 70.1883 18.5811 70.5642 18.3333C70.9545 18.071 71.2437 17.7359 71.4316 17.3279H74.2509C74.0485 18.0128 73.7088 18.6393 73.2316 19.2077C72.769 19.7614 72.1907 20.1985 71.4967 20.5191C70.8172 20.8397 70.0437 21 69.1762 21ZM69.1979 11.9071C68.5184 11.9071 67.9184 12.1038 67.3979 12.4973C66.8774 12.8761 66.5449 13.459 66.4003 14.2459H71.7569C71.7136 13.5319 71.4533 12.9636 70.9762 12.541C70.4991 12.1184 69.9063 11.9071 69.1979 11.9071Z" fill="black"/>
<path d="M76.0435 20.7377V9.89618H78.4941L78.7109 11.7322C79.0434 11.0911 79.5206 10.5811 80.1422 10.2022C80.7784 9.82331 81.523 9.63388 82.376 9.63388C83.7061 9.63388 84.7398 10.0565 85.4772 10.9016C86.2145 11.7468 86.5832 12.9854 86.5832 14.6175V20.7377H83.8073V14.8798C83.8073 13.9472 83.6193 13.2332 83.2434 12.7377C82.8675 12.2423 82.282 11.9945 81.4868 11.9945C80.7061 11.9945 80.0627 12.2714 79.5567 12.8251C79.0651 13.3789 78.8194 14.1512 78.8194 15.1421V20.7377H76.0435Z" fill="black"/>
<path d="M93.3147 21C92.3027 21 91.399 20.7523 90.6039 20.2568C89.8087 19.7614 89.1798 19.0838 88.7171 18.224C88.2545 17.3643 88.0231 16.388 88.0231 15.2951C88.0231 14.2022 88.2545 13.2332 88.7171 12.388C89.1798 11.5282 89.8087 10.8579 90.6039 10.377C91.399 9.8816 92.3027 9.63388 93.3147 9.63388C94.1243 9.63388 94.8328 9.78689 95.44 10.0929C96.0472 10.3989 96.5388 10.8288 96.9147 11.3825V5H99.6906V20.7377H97.2183L96.9147 19.1858C96.5677 19.6667 96.1051 20.0893 95.5267 20.4536C94.9629 20.8179 94.2255 21 93.3147 21ZM93.9002 18.5519C94.7966 18.5519 95.5267 18.2532 96.0906 17.6557C96.6689 17.0437 96.9581 16.2641 96.9581 15.3169C96.9581 14.3698 96.6689 13.5974 96.0906 13C95.5267 12.388 94.7966 12.082 93.9002 12.082C93.0183 12.082 92.2882 12.3807 91.7099 12.9781C91.1316 13.5756 90.8424 14.3479 90.8424 15.2951C90.8424 16.2423 91.1316 17.0219 91.7099 17.6339C92.2882 18.2459 93.0183 18.5519 93.9002 18.5519Z" fill="black"/>
<path d="M105.358 21C104.433 21 103.674 20.8543 103.081 20.5628C102.488 20.2568 102.047 19.8561 101.758 19.3607C101.469 18.8652 101.325 18.3188 101.325 17.7213C101.325 16.7158 101.715 15.8998 102.496 15.2732C103.276 14.6466 104.447 14.3333 106.009 14.3333H108.741V14.071C108.741 13.3279 108.532 12.7814 108.112 12.4317C107.693 12.082 107.173 11.9071 106.551 11.9071C105.987 11.9071 105.496 12.0455 105.076 12.3224C104.657 12.5847 104.397 12.9781 104.296 13.5027H101.585C101.657 12.7158 101.917 12.031 102.366 11.4481C102.828 10.8652 103.421 10.4208 104.144 10.1148C104.867 9.79417 105.676 9.63388 106.573 9.63388C108.105 9.63388 109.312 10.02 110.194 10.7923C111.076 11.5647 111.517 12.6576 111.517 14.071V20.7377H109.153L108.893 18.9891C108.575 19.572 108.127 20.0528 107.549 20.4317C106.985 20.8106 106.255 21 105.358 21ZM105.987 18.8142C106.782 18.8142 107.397 18.5519 107.831 18.0273C108.279 17.5027 108.561 16.8543 108.676 16.082H106.312C105.575 16.082 105.047 16.2204 104.729 16.4973C104.411 16.7596 104.252 17.0874 104.252 17.4809C104.252 17.9035 104.411 18.2313 104.729 18.4645C105.047 18.6976 105.467 18.8142 105.987 18.8142Z" fill="black"/>
<path d="M113.299 20.7377V9.89618H115.771L116.031 11.929C116.422 11.2295 116.949 10.6758 117.614 10.2678C118.294 9.84517 119.089 9.63388 120 9.63388V12.5847H119.219C118.612 12.5847 118.07 12.6794 117.593 12.8689C117.116 13.0583 116.74 13.3862 116.465 13.8525C116.205 14.3188 116.075 14.9672 116.075 15.7978V20.7377H113.299Z" fill="black"/>
<defs>
<filter id="filter0_d_2075_2661" x="-6.03466" y="-5.3247" width="40.6191" height="40.6191" filterUnits="userSpaceOnUse" color-interpolation-filters="sRGB">
<feFlood flood-opacity="0" result="BackgroundImageFix"/>
<feColorMatrix in="SourceAlpha" type="matrix" values="0 0 0 0 0 0 0 0 0 0 0 0 0 0 0 0 0 0 127 0" result="hardAlpha"/>
<feOffset dx="1.7749" dy="2.48486"/>
<feGaussianBlur stdDeviation="3.90478"/>
<feColorMatrix type="matrix" values="0 0 0 0 0.167708 0 0 0 0 0.238438 0 0 0 0 0.875 0 0 0 0.2 0"/>
<feBlend mode="normal" in2="BackgroundImageFix" result="effect1_dropShadow_2075_2661"/>
<feBlend mode="normal" in="SourceGraphic" in2="effect1_dropShadow_2075_2661" result="shape"/>
</filter>
<filter id="filter1_d_2075_2661" x="-6.03466" y="-9.3247" width="44.6191" height="44.6191" filterUnits="userSpaceOnUse" color-interpolation-filters="sRGB">
<feFlood flood-opacity="0" result="BackgroundImageFix"/>
<feColorMatrix in="SourceAlpha" type="matrix" values="0 0 0 0 0 0 0 0 0 0 0 0 0 0 0 0 0 0 127 0" result="hardAlpha"/>
<feOffset dx="1.7749" dy="2.48486"/>
<feGaussianBlur stdDeviation="3.90478"/>
<feColorMatrix type="matrix" values="0 0 0 0 0.167708 0 0 0 0 0.238438 0 0 0 0 0.875 0 0 0 0.2 0"/>
<feBlend mode="normal" in2="BackgroundImageFix" result="effect1_dropShadow_2075_2661"/>
<feBlend mode="normal" in="SourceGraphic" in2="effect1_dropShadow_2075_2661" result="shape"/>
</filter>
<filter id="filter2_d_2075_2661" x="-9.58437" y="-7.2942" width="46.6191" height="38.6191" filterUnits="userSpaceOnUse" color-interpolation-filters="sRGB">
<feFlood flood-opacity="0" result="BackgroundImageFix"/>
<feColorMatrix in="SourceAlpha" type="matrix" values="0 0 0 0 0 0 0 0 0 0 0 0 0 0 0 0 0 0 127 0" result="hardAlpha"/>
<feOffset dx="-1.77481" dy="-2.48464"/>
<feGaussianBlur stdDeviation="3.90478"/>
<feColorMatrix type="matrix" values="0 0 0 0 0.167708 0 0 0 0 0.238438 0 0 0 0 0.875 0 0 0 0.2 0"/>
<feBlend mode="normal" in2="BackgroundImageFix" result="effect1_dropShadow_2075_2661"/>
<feBlend mode="normal" in="SourceGraphic" in2="effect1_dropShadow_2075_2661" result="shape"/>
</filter>
<linearGradient id="paint0_linear_2075_2661" x1="-6.41522" y1="-15.1062" x2="33.7795" y2="11.9639" gradientUnits="userSpaceOnUse">
<stop stop-color="#E2D4FF"/>
<stop offset="1" stop-color="#603DE6"/>
</linearGradient>
<linearGradient id="paint1_linear_2075_2661" x1="0" y1="0" x2="27.6427" y2="16.7193" gradientUnits="userSpaceOnUse">
<stop stop-color="#E2D4FF"/>
<stop offset="1" stop-color="#6443E7"/>
</linearGradient>
<linearGradient id="paint2_linear_2075_2661" x1="0" y1="-4" x2="32.0655" y2="15.3944" gradientUnits="userSpaceOnUse">
<stop stop-color="#E2D4FF"/>
<stop offset="1" stop-color="#996CF7"/>
</linearGradient>
<linearGradient id="paint3_linear_2075_2661" x1="0.22418" y1="6.52415" x2="24.6815" y2="21.4823" gradientUnits="userSpaceOnUse">
<stop stop-color="#E2D4FF"/>
<stop offset="1" stop-color="#5430E3"/>
</linearGradient>
<clipPath id="clip0_2075_2661">
<rect width="25" height="25" rx="5.24388" fill="white"/>
</clipPath>
</defs>
</svg>
