<svg width="121" height="43" viewBox="0 0 121 43" fill="none" xmlns="http://www.w3.org/2000/svg">
<path d="M24.8088 23.8673L23.2466 21.7789L20.0059 17.3816L19.7099 16.9721L19.4139 16.5625H21.7157L24.8018 20.8305L25.9313 22.4011L27.0607 23.9718L27.2332 23.9741L27.5089 23.3869L27.7846 22.7997L28.3557 21.772L28.9268 20.7442L29.9911 19.1491L31.0552 17.554L32.1276 16.2176L33.2 14.8812L35.6829 12.3105L37.9246 10.3372L39.218 9.36485L40.5113 8.39253L41.6241 7.68483L42.7371 6.97721L43.6934 6.43497L44.6499 5.89264L46.7192 4.85807L48.5299 4.07156L49.2627 3.79945L49.9956 3.52742L53.272 2.52846L54.6045 2.21858L55.9371 1.9087L56.0716 2.12046L56.0742 2.4869L56.1237 2.73479L56.1732 2.98267L55.3693 3.18693L54.5654 3.39128L53.2625 3.81169L51.9597 4.2321L50.4521 4.82884L48.9446 5.42549L47.7026 6.04689L46.4606 6.66828L45.5552 7.18897L44.6499 7.70966L43.6152 8.40107L42.5806 9.09256L41.8046 9.65274L41.0286 10.213L39.9077 11.1204L38.7868 12.0279L37.7017 12.9977L36.6166 13.9675L35.8243 14.7963L35.0321 15.6249L34.2552 16.5299L33.4784 17.4349L32.5894 18.6218L31.7006 19.8086L31.0101 20.8305L30.4444 21.7789L29.8786 22.7273L28.2786 25.9606L26.371 25.9558L24.8088 23.8673ZM36.1571 25.9606V16.5625H49.6076V18.2869H37.9677V20.786L43.4212 20.8083L48.8748 20.8305V22.5549L43.4212 22.577L37.9677 22.5993V24.15H49.6076V25.9606H36.1571ZM51.7632 21.2646V16.5625L54.048 16.5635L54.8935 16.691L55.739 16.8184L56.5668 17.044L57.3945 17.2694L58.7496 17.8409L59.447 18.2498L60.1443 18.6586L60.89 19.2361L61.6355 19.8135L62.2397 20.4513L62.8439 21.0891L63.1019 21.4537L63.36 21.8184L63.4246 21.8202L63.4893 21.822V16.5625H65.2999V25.9606H63.4893L63.4884 25.7451L63.119 24.926L62.7496 24.1069L62.3322 23.4602L61.9149 22.8135L60.8018 21.4918L59.48 20.3787L58.8333 19.9608L58.1867 19.543L57.422 19.2129L56.6574 18.8829L55.7838 18.6707L54.9103 18.4584L53.5307 18.351V25.9175L52.6469 25.9421L51.7632 25.9666V21.2646ZM69.0032 25.8446L68.6109 25.7374L68.013 25.3678L67.6379 24.9685L67.3958 24.4515L67.1537 23.9344L67.127 20.2485L67.1005 16.5625H68.9212V23.5577L69.0215 23.7461L69.1219 23.9344L69.2586 24.0394L69.3954 24.1444L78.4133 24.15L78.6255 23.9383L78.8367 23.7267V16.5625H80.656L80.6301 20.2916L80.6042 24.0206L80.4051 24.461L80.2059 24.9014L79.8877 25.2112L79.5696 25.521L78.7074 25.9175L74.0514 25.9347L69.3954 25.9518L69.0032 25.8446ZM82.2856 25.9616V16.5625H95.8223V18.2869H84.0962V20.7873H95.0463V22.598H84.0962V24.1488L95.7792 24.1931V25.9175L89.0324 25.9396L82.2856 25.9616ZM2.37002 25.3355L2.65481 24.9691L3.12575 24.3721L3.59661 23.7752L3.387 23.6448L3.1774 23.5145L2.60903 22.9462L2.04066 22.3779L1.77742 21.8198L1.51419 21.2616L1.41891 20.8047L1.32364 20.3478L1.32623 19.5371L1.58661 18.4323L2.11946 17.4326L2.42995 17.0698L2.74043 16.7071L3.25448 16.3749L3.76853 16.0426L4.90183 15.6887L6.19515 15.6806L6.54857 15.7765L6.90199 15.8724L6.77085 16.7781L6.6604 17.5864L5.95795 17.3385H5.21007L4.28457 17.6848L3.91347 18.0024L3.54246 18.32L3.04824 19.3647L3.05565 20.4856L3.17257 20.8134L3.28949 21.1412L3.52496 21.4809L3.76034 21.8207L4.15187 22.08L4.54341 22.3393H4.67265L6.93786 19.3862L9.20307 16.4332L11.9495 12.855H13.5391L14.9065 14.6441L16.2738 16.4332L20.2384 21.6064L21.814 23.6542L23.3895 25.7019L20.939 25.6934L20.3918 24.9648L19.8446 24.2362H5.6379L5.09746 24.9654L4.55694 25.6947L2.08515 25.7019L2.37002 25.3355ZM18.5679 22.598V22.4972L18.1584 21.9674L17.7488 21.4376L17.6799 21.3496L17.6111 21.2616L17.0394 20.4856L16.4677 19.7096L16.4096 19.6665L16.3514 19.6234L14.5659 17.2307L12.7802 14.8381L12.6618 14.8446L11.0444 17.0184L9.42707 19.1923L6.93053 22.4687L6.92924 22.5333L6.92803 22.598H18.5679ZM101.513 25.7019L101.501 25.5726L101.491 23.8482L109.456 23.8051L117.421 23.762L117.984 23.3604L118.24 22.8652V21.9717L118.059 21.6792L117.879 21.3868L117.606 21.2379L117.335 21.0891L109.416 21.046L101.497 21.0029L101.507 13.0203L101.609 12.855H119.102V15.2692H117.291V14.7508L110.329 14.7729L103.367 14.795L103.321 19.1434L117.593 19.1923L118.59 19.6594L119.094 20.1404L119.599 20.6215L120.051 21.6291L120.107 22.1581L120.162 22.687L120.009 23.2515L119.856 23.8162L119.134 24.7966L118.666 25.1171L118.197 25.4376L117.169 25.7019H101.513ZM80.0007 4.77728L79.3109 4.47637L76.0345 3.38369L74.655 3.04096L73.2754 2.69814L70.6888 2.25643L68.3608 1.97863L66.1621 1.93043L63.9635 1.88232L62.6385 1.98415L61.3137 2.08597L61.2483 2.02062L61.1379 1.21514L65.6879 1.21695L66.7226 1.30378L67.7572 1.3906L69.0506 1.56701L70.3439 1.74342L71.566 1.99734L72.788 2.25126L73.5922 2.46069L74.3963 2.67012L77.5478 3.64123L78.791 4.1483L80.0334 4.65536L80.4482 4.87126L80.8629 5.08707L80.6905 5.07811L80.0007 4.77728ZM58.5316 3.45129L57.8685 3.21288L57.653 3.01156L57.4374 2.81023L57.3163 2.57743L57.1951 2.34455V1.62917L57.3366 1.33111L57.478 1.03295L58.0646 0.585553L58.8953 0.505798L59.5328 0.808262L59.9755 1.3887L60.0617 2.15331L60.008 2.36731L59.9543 2.5814L59.7284 2.84981L59.5026 3.11821L59.2757 3.23401L59.0489 3.34989L58.7902 3.40059L58.5316 3.45129Z" fill="black"/>
</svg>
