<svg width="101" height="53" viewBox="0 0 101 53" fill="none" xmlns="http://www.w3.org/2000/svg">
<path d="M70.7224 24.6042C69.2272 24.3277 67.2649 24.1821 66.6268 23.2761C65.6682 21.9152 66.8656 19.9353 70.002 20.1205C72.8412 20.2878 73.2284 22.4789 73.2675 23.331H77.3631C77.419 21.7263 76.7544 20.0658 75.7574 19.0142C74.486 17.6862 71.4965 16.3012 67.7896 16.8565C65.796 17.132 63.1397 18.294 62.2532 20.8966C61.4781 23.331 62.2532 25.5444 63.7475 26.7075C65.6299 28.147 69.1622 28.5782 70.6112 28.8674C72.3632 29.2173 73.6641 29.4514 73.4477 31.3152C73.2206 33.2738 70.1845 33.8313 68.1758 33.183C66.7438 32.7207 66.1274 31.5773 65.8509 30.0284H61.5351C61.5351 31.9915 62.7028 34.0628 63.8853 35.0136C65.6389 36.4237 67.6317 36.9198 69.9342 36.9198C72.9584 36.9198 75.4608 36.1404 76.9764 33.9024C77.7707 32.7289 78.6368 30.0284 77.2519 27.5938C76.035 25.4899 73.2675 25.0469 70.7224 24.6042Z" fill="black"/>
<path d="M56.4435 19.4553C54.6854 17.4461 51.6072 16.2997 48.4744 16.7978C42.5966 17.7325 41.1576 23.3021 40.8915 25.1011C40.3936 28.469 41.3901 34.1223 47.3124 36.337C50.0781 37.3876 53.5662 37.0006 56.2225 35.0638C57.7167 33.9552 59.2112 31.4661 59.3216 29.9151H54.3958C54.2307 30.5798 53.8427 31.4661 52.9572 32.1297C50.9636 33.5685 48.6953 32.6283 47.6983 31.9079C46.2041 30.8016 45.651 28.9757 45.651 26.3735C45.651 22.7703 47.3073 20.6364 50.1678 20.6364C52.7563 20.6364 54.3566 22.8635 54.2307 24.713H47.2557V28.2H59.3216C59.6161 24.9174 58.0907 21.3379 56.4435 19.4553Z" fill="black"/>
<path d="M92.3273 30.8427C91.9254 31.9988 90.8404 32.8474 88.7857 33.1176C86.0748 33.4736 84.2229 31.7907 85.3951 29.6238C86.5721 27.4478 90.9068 28.2194 92.5491 26.6355C92.5491 27.0779 92.6206 29.9978 92.3273 30.8427ZM97.3096 31.5619V25.5837C97.3096 24.6773 97.2001 22.496 96.9225 21.0452C96.7228 20.0005 95.8221 18.4162 94.0977 17.5565C92.5948 16.8074 91.4387 16.6726 88.9916 16.6726C85.3134 16.6726 81.3544 17.9518 81.185 23.2586H85.6118C85.6118 21.3383 86.9422 20.2044 88.9791 20.2044C90.9721 20.2044 92.6624 21.2777 92.2736 23.038C91.8846 24.7983 88.6341 24.8639 86.5569 25.141C84.1481 25.4624 80.9111 26.5796 80.1362 29.9562C79.8595 31.2846 80.0805 33.7198 82.128 35.3245C83.5127 36.3761 84.9838 36.8197 86.9441 36.8197C89.4449 36.8197 91.5471 35.7308 92.7163 34.6608C92.771 34.9373 93.0473 35.9887 93.2693 36.2667H97.9182C97.198 34.8269 97.3096 32.5953 97.3096 31.5619Z" fill="black"/>
<path d="M9.46316 28.4437C8.36566 28.4437 7.47627 27.5543 7.47627 26.4571C7.47627 25.3598 8.36566 24.4702 9.46316 24.4702C10.5604 24.4702 11.4498 25.3598 11.4498 26.4571C11.4498 27.5543 10.5604 28.4437 9.46316 28.4437ZM24.8771 37.3562C17.033 34.6481 15.5817 27.3919 17.5369 22.3119C19.4887 17.232 26.3267 14.8609 31.0714 18.2646C35.8182 21.6697 35.3143 28.2006 35.3143 28.2006H23.1464V24.7135H30.2082C30.2082 24.7135 30.4051 23.3539 29.2302 22.061C27.6632 20.3365 25.4164 20.3563 23.9555 21.1964C22.1349 22.2433 20.8859 25.978 21.8613 29.2616C22.8367 32.5455 25.8185 33.8503 28.6874 33.8503C32.8428 33.8503 35.9354 30.9777 35.9417 26.275C35.9577 18.4819 30.7025 11.3767 22.805 9.37261C13.4826 7.00823 4.00865 12.6483 1.64263 21.9706C-0.721763 31.2927 4.9175 40.7679 14.2401 43.1329C20.8947 44.8207 27.6261 42.4307 31.7947 37.534C29.8211 38.1169 27.4764 38.2531 24.8771 37.3562Z" fill="black"/>
</svg>
