<svg width="101" height="55" viewBox="0 0 101 55" fill="none" xmlns="http://www.w3.org/2000/svg">
<path d="M19.8313 33.942C20.13 35.0718 20.612 35.5087 21.4638 35.5087C22.3468 35.5087 22.8098 34.9782 22.8098 33.942V14.7041H28.3413V33.942C28.3413 36.6537 27.9895 37.8286 26.6146 39.2039C25.6237 40.195 23.796 40.9611 21.4882 40.9611C19.6237 40.9611 17.8396 40.344 16.7018 39.2041C15.7043 38.2047 15.1563 37.1782 14.3 33.9418L10.9058 21.1167C10.6069 19.9869 10.1251 19.5502 9.2733 19.5502C8.39006 19.5502 7.92702 20.0805 7.92702 21.1167V40.3548H2.39557V21.1167C2.39557 18.4052 2.74754 17.2301 4.12244 15.8548C5.11296 14.8641 6.94086 14.0976 9.24885 14.0976C11.1133 14.0976 12.8974 14.7149 14.0352 15.8546C15.0328 16.854 15.5807 17.8806 16.437 21.1169L19.8313 33.942Z" fill="black"/>
<path d="M93.0006 40.3548L86.6124 20.3705C86.5419 20.1499 86.4754 19.9626 86.373 19.8377C86.1975 19.6241 85.9547 19.5119 85.628 19.5119C85.3014 19.5119 85.0586 19.6241 84.8829 19.8377C84.7807 19.9624 84.714 20.1497 84.6437 20.3705L78.2557 40.3548H72.538L79.5158 18.5244C79.8793 17.3872 80.399 16.4217 81.0584 15.7784C82.1901 14.6751 83.5237 14.0976 85.6282 14.0976C87.7326 14.0976 89.0664 14.6751 90.1977 15.7782C90.8571 16.4217 91.3768 17.387 91.7405 18.5242L98.7182 40.3546H93.0006V40.3548Z" fill="black"/>
<path d="M64.7314 40.3548C68.3553 40.3548 70.1229 39.5849 71.5194 38.1962C73.0647 36.66 73.8039 34.9791 73.8039 32.4697C73.8039 30.2523 72.9921 28.1984 71.7562 26.9695C70.1402 25.3624 68.133 24.8559 64.8601 24.8559L60.2757 24.8557C58.524 24.8557 57.826 24.644 57.2736 24.1014C56.8944 23.7291 56.7166 23.1755 56.7166 22.5229C56.7166 21.8483 56.879 21.1821 57.3426 20.727C57.7541 20.3231 58.315 20.1378 59.3927 20.1378H72.6419V14.7041H60.4046C56.7807 14.7041 55.0132 15.4742 53.6165 16.8627C52.0714 18.3989 51.332 20.0796 51.332 22.589C51.332 24.8068 52.1438 26.8605 53.3798 28.0892C54.996 29.6963 57.003 30.203 60.2759 30.203L64.8604 30.2034C66.6121 30.2034 67.3102 30.4147 67.8625 30.9575C68.2418 31.33 68.4196 31.8834 68.4196 32.536C68.4196 33.2106 68.2571 33.8768 67.7937 34.3319C67.382 34.7358 66.8212 34.9211 65.7435 34.9211H52.079L46.8381 18.5244C46.4746 17.3872 45.9549 16.4217 45.2955 15.7784C44.1637 14.6751 42.8302 14.0976 40.7257 14.0976C38.6213 14.0976 37.2875 14.6751 36.1564 15.7782C35.4968 16.4217 34.9773 17.387 34.6137 18.5242L27.6359 40.3546H33.3535L39.7417 20.3703C39.8122 20.1497 39.8787 19.9624 39.981 19.8375C40.1566 19.6239 40.3995 19.5117 40.7261 19.5117C41.0527 19.5117 41.2955 19.6239 41.4712 19.8375C41.5735 19.9622 41.6401 20.1495 41.7104 20.3703L48.0985 40.3546H64.7314V40.3548Z" fill="black"/>
</svg>
