<svg width="151" height="57" viewBox="0 0 151 57" fill="none" xmlns="http://www.w3.org/2000/svg">
<path d="M14.7436 28.0441H4.7856V25.5734H17.6262C17.2893 24.5252 16.2036 23.5518 14.2944 23.5518H4.97279C2.83892 23.5518 1.60353 24.338 1.60353 26.06V27.8944C1.60353 29.3918 2.87636 30.2529 4.74817 30.2529H14.8185V32.8734H1.2666C1.60353 34.296 2.68918 35.0447 4.63586 35.0447H14.7811C16.9149 35.0447 17.9631 34.2211 17.9631 32.4616V30.6272C17.9631 29.0175 16.7278 28.1565 14.7436 28.0441Z" fill="black"/>
<path d="M35.0702 23.5884H22.7911V35.0813H26.2727V30.6639H35.3323C37.8405 30.6639 39.2256 29.8028 39.2256 27.7813V26.5085C39.1882 24.6366 37.6159 23.5884 35.0702 23.5884ZM36.1933 27.2572C36.1933 28.0808 36.0436 28.53 34.6958 28.53H26.2727L26.3101 25.5351H34.5461C36.0436 25.5351 36.2307 25.9843 36.2307 26.7705V27.2572H36.1933Z" fill="black"/>
<path d="M49.3318 23.1029L47.2353 25.686L50.7918 30.5901H43.3794L41.545 32.5368H52.2518L54.0862 35.0825H58.2042L49.3318 23.1029Z" fill="black"/>
<path d="M64.8665 25.5734H77.8943C77.5574 24.2257 76.2471 23.5518 74.3753 23.5518H64.6419C62.9573 23.5518 61.3475 24.2257 61.3475 26.06V32.499C61.3475 34.3334 62.9573 35.0073 64.6419 35.0073H74.4876C76.7338 35.0073 77.52 34.3708 77.8943 32.836H64.8665V25.5734Z" fill="black"/>
<path d="M86.1713 32.9103V29.3913H93.1719V27.4446H82.6523V35.0816H98.1884V32.9103H86.1713Z" fill="black"/>
<path d="M98.7135 23.5884H83.0277V25.61H98.7135V23.5884Z" fill="black"/>
<path d="M108.369 23.5884H102.904L109.343 28.3054C110.279 27.669 111.364 26.9951 112.338 26.4336L108.369 23.5884Z" fill="black"/>
<path d="M116.308 29.4642C115.372 30.1006 114.436 30.8119 113.538 31.4858L118.404 35.0422H123.907L116.308 29.4642Z" fill="black"/>
<path d="M150.072 16.8883C120.123 18.6104 106.272 31.4135 103.164 34.4458L102.528 35.0448H108.069C123.043 20.0329 144.569 17.375 150.072 16.8883Z" fill="black"/>
</svg>
