<svg width="101" height="24" viewBox="0 0 101 24" fill="none" xmlns="http://www.w3.org/2000/svg">
<path d="M58.2491 23.1252L48.9555 0.967896H44.0532L34.7202 23.1252H39.6604L46.4839 6.81105L53.3475 23.1252H58.2491Z" fill="black"/>
<path d="M10.0537 23.3603C6.72008 23.3603 3.34701 22.1836 0.719971 19.8311L3.58204 16.4193C5.54265 18.0661 7.6223 19.0866 10.1318 19.0866C12.0924 19.0866 13.3085 18.3011 13.3085 17.0069V16.9288C13.3085 15.7127 12.5633 15.0865 8.8763 14.1449C4.44559 13.0076 1.58276 11.7915 1.58276 7.43892V7.36083C1.58276 3.36001 4.79813 0.733734 9.26827 0.733734C12.4852 0.733734 15.1903 1.7527 17.4254 3.51695L14.9166 7.16446C12.9552 5.83162 11.034 5.00749 9.19018 5.00749C7.34708 5.00749 6.36678 5.87028 6.36678 6.92867V6.96886C6.36678 8.41922 7.30766 8.89004 11.1121 9.87034C15.583 11.047 18.0925 12.6551 18.0925 16.4595V16.5369C18.1312 20.8895 14.7976 23.3603 10.0537 23.3603Z" fill="black"/>
<path d="M28.7984 16.4167H25.1122V23.0445H20.2896V1.04492H29.2692C34.5241 1.04492 37.7 4.14277 37.7 8.65232V8.73041C37.6621 13.7896 33.7401 16.4167 28.7984 16.4167ZM32.7598 8.73041C32.7598 6.5742 31.2693 5.39753 28.8378 5.39753H25.1122V12.1035H28.9554C31.3868 12.1035 32.7993 10.6516 32.7993 8.76983V8.73041H32.7598Z" fill="black"/>
<path d="M68.2884 23.3985C61.8174 23.3985 56.9948 18.4189 56.9948 12.1049V12.0261C56.9948 5.79017 61.7007 0.653625 68.4453 0.653625C72.6023 0.653625 75.0717 2.02666 77.1111 4.06535L74.0534 7.63402C72.3665 6.10405 70.6417 5.16317 68.4453 5.16317C64.7197 5.16317 62.0525 8.26178 62.0525 12.0261V12.1049C62.0525 15.8692 64.6803 19.0065 68.4453 19.0065C70.9556 19.0065 72.484 17.9867 74.2104 16.4181L77.2681 19.5159C75.0717 21.9087 72.5235 23.3985 68.2884 23.3985Z" fill="black"/>
<path d="M79.8177 23.0445V1.04492H92.9536V5.3581H84.6017V9.82899H91.5427V14.1422H84.6017V18.7306H93.1113V23.0445H79.8177Z" fill="black"/>
<path d="M95.5054 0.967896H97.0346V2.53577H95.5054V0.967896Z" fill="black"/>
<path d="M95.3821 5.98811C95.3821 4.4589 96.5595 3.32166 98.0493 3.32166C99.5004 3.32166 100.716 4.4589 100.716 6.02678C100.716 7.00708 100.402 7.59541 99.853 8.06547L98.9129 7.16402C99.2646 6.85014 99.461 6.4976 99.461 5.98811C99.461 5.24284 98.834 4.73259 98.0493 4.73259C97.2654 4.73259 96.6384 5.24284 96.6384 6.02678C96.6384 6.4976 96.8332 6.85014 97.1865 7.2042L96.3245 8.06547C95.7748 7.59541 95.3821 7.00708 95.3821 5.98811Z" fill="black"/>
<path d="M95.3821 11.4393C95.3821 9.83127 96.5595 8.6546 98.0493 8.6546C99.5399 8.6546 100.716 9.83127 100.716 11.4393C100.716 13.0466 99.5399 14.2225 98.0493 14.2225C96.5595 14.2225 95.3821 13.0072 95.3821 11.4393ZM98.0493 12.7714C98.7946 12.7714 99.461 12.2233 99.461 11.4393C99.461 10.616 98.834 10.105 98.0493 10.105C97.304 10.105 96.6384 10.6539 96.6384 11.4393C96.6384 12.2627 97.2654 12.7714 98.0493 12.7714Z" fill="black"/>
<path d="M95.5054 21.6328H98.3674C99.0741 21.6328 99.4258 21.3196 99.4258 20.7707C99.4258 20.2218 99.0741 19.8685 98.3674 19.8685H95.5054V18.4182H98.3674C99.0741 18.4182 99.4258 18.1043 99.4258 17.5546C99.4258 17.0049 99.0741 16.6918 98.3674 16.6918H95.5054V15.2415H100.642V16.6918H99.8974C100.328 17.0451 100.72 17.4758 100.72 18.221C100.72 18.8882 100.406 19.3985 99.8974 19.6722C100.406 20.1035 100.72 20.6525 100.72 21.3591C100.72 22.4569 100.054 23.0839 98.8383 23.0839H95.5054V21.6328Z" fill="black"/>
</svg>
