<svg width="81" height="69" viewBox="0 0 81 69" fill="none" xmlns="http://www.w3.org/2000/svg">
<path fill-rule="evenodd" clip-rule="evenodd" d="M40.1058 6.39847C53.8637 6.39847 65.0613 17.6229 65.0613 31.3802C65.0613 45.1376 53.8637 56.362 40.1058 56.362C26.3485 56.362 15.124 45.1376 15.124 31.3802C15.124 17.6229 26.3485 6.39847 40.1058 6.39847Z" fill="black"/>
<path fill-rule="evenodd" clip-rule="evenodd" d="M40.1059 8.07816C52.9306 8.07816 63.4081 18.5562 63.4081 31.3803C63.4081 44.2044 52.9306 54.6825 40.1059 54.6825C27.255 54.6825 16.8038 44.2313 16.8038 31.3803C16.8038 18.5562 27.255 8.07816 40.1059 8.07816Z" fill="#231F20"/>
<path fill-rule="evenodd" clip-rule="evenodd" d="M40.1047 8.55737C52.6627 8.55737 62.9272 18.7955 62.9272 31.3798C62.9272 43.9641 52.6627 54.2023 40.1047 54.2023C27.5205 54.2023 17.256 43.9641 17.256 31.3798C17.256 18.7955 27.5205 8.55737 40.1047 8.55737Z" fill="white"/>
<path fill-rule="evenodd" clip-rule="evenodd" d="M40.1067 9.03659C52.398 9.03659 62.4494 19.0618 62.4494 31.3793C62.4494 43.6969 52.398 53.722 40.1067 53.722C27.7892 53.722 17.7377 43.6969 17.7377 31.3793C17.7377 19.0618 27.7892 9.03659 40.1067 9.03659Z" fill="black"/>
<path fill-rule="evenodd" clip-rule="evenodd" d="M32.0556 11.7852C32.4823 11.7852 32.8552 12.1318 32.8552 12.5847C32.8552 13.0119 32.4823 13.358 32.0556 13.358C31.6022 13.358 31.2555 13.0119 31.2555 12.5847C31.2555 12.1318 31.6022 11.7852 32.0556 11.7852ZM35.468 19.0902C35.8946 19.0902 36.2681 19.4368 36.2681 19.8903C36.2681 20.3169 35.8946 20.6904 35.468 20.6904C35.0151 20.6904 34.6684 20.3169 34.6684 19.8903C34.6684 19.4368 35.0151 19.0902 35.468 19.0902ZM28.376 18.6904C28.8026 18.6904 29.1761 19.0371 29.1761 19.4905C29.1761 19.9171 28.8026 20.2901 28.376 20.2901C27.9226 20.2901 27.5765 19.9171 27.5765 19.4905C27.5765 19.0371 27.9226 18.6904 28.376 18.6904ZM32.0288 19.5174C32.3486 19.5174 32.6153 19.8103 32.6153 20.1301C32.6153 20.4505 32.3486 20.7167 32.0288 20.7167C31.6821 20.7167 31.4154 20.4505 31.4154 20.1301C31.4154 19.8103 31.6821 19.5174 32.0288 19.5174ZM38.5873 16.3712C38.9072 16.3712 39.1739 16.6641 39.1739 16.9839C39.1739 17.3043 38.9072 17.571 38.5873 17.571C38.2407 17.571 37.974 17.3043 37.974 16.9839C37.974 16.6641 38.2407 16.3712 38.5873 16.3712ZM42.9597 12.0519C43.3064 12.0519 43.5731 12.3186 43.5731 12.6384C43.5731 12.9582 43.3064 13.2249 42.9597 13.2249C42.6399 13.2249 42.3738 12.9582 42.3738 12.6384C42.3738 12.3186 42.6399 12.0519 42.9597 12.0519ZM47.0391 11.2518C47.3858 11.2518 47.6525 11.5185 47.6525 11.8383C47.6525 12.1587 47.3858 12.4517 47.0391 12.4517C46.7193 12.4517 46.4526 12.185 46.4526 11.8383C46.4526 11.5185 46.7193 11.2518 47.0391 11.2518ZM53.038 15.2781C53.3578 15.2781 53.6245 15.5442 53.6245 15.8646C53.6245 16.2112 53.3578 16.4774 53.038 16.4774C52.6913 16.4774 52.4252 16.2112 52.4252 15.8646C52.4252 15.5442 52.6913 15.2781 53.038 15.2781ZM51.4652 18.2107C51.8118 18.2107 52.0779 18.4774 52.0779 18.7972C52.0779 19.117 51.8118 19.3837 51.4652 19.3837C51.1453 19.3837 50.8786 19.117 50.8786 18.7972C50.8786 18.4774 51.1453 18.2107 51.4652 18.2107ZM55.0111 19.4368C55.3578 19.4368 55.6245 19.7035 55.6245 20.0502C55.6245 20.37 55.3578 20.6367 55.0111 20.6367C54.6913 20.6367 54.4246 20.37 54.4246 20.0502C54.4246 19.7035 54.6913 19.4368 55.0111 19.4368ZM54.0511 22.1833C54.3715 22.1833 54.6376 22.45 54.6376 22.7966C54.6376 23.1165 54.3715 23.3832 54.0511 23.3832C53.705 23.3832 53.4383 23.1165 53.4383 22.7966C53.4383 22.45 53.705 22.1833 54.0511 22.1833ZM53.0117 20.4237C53.4383 20.4237 53.8113 20.7704 53.8113 21.2232C53.8113 21.6499 53.4383 22.0234 53.0117 22.0234C52.5583 22.0234 52.2116 21.6499 52.2116 21.2232C52.2116 20.7704 52.5583 20.4237 53.0117 20.4237ZM58.717 22.6367C59.1705 22.6367 59.5166 22.9828 59.5166 23.4363C59.5166 23.8629 59.1705 24.2364 58.717 24.2364C58.2904 24.2364 57.9175 23.8629 57.9175 23.4363C57.9175 22.9828 58.2904 22.6367 58.717 22.6367ZM58.9837 27.7824C59.4104 27.7824 59.7833 28.129 59.7833 28.5556C59.7833 29.0085 59.4104 29.3552 58.9837 29.3552C58.5571 29.3552 58.1836 29.0085 58.1836 28.5556C58.1836 28.129 58.5571 27.7824 58.9837 27.7824ZM56.3178 26.2621C56.7707 26.2621 57.1174 26.6093 57.1174 27.0622C57.1174 27.4888 56.7707 27.8623 56.3178 27.8623C55.8906 27.8623 55.5177 27.4888 55.5177 27.0622C55.5177 26.6093 55.8906 26.2621 56.3178 26.2621ZM49.5988 27.0622C50.0254 27.0622 50.3983 27.4089 50.3983 27.8623C50.3983 28.2889 50.0254 28.6619 49.5988 28.6619C49.1453 28.6619 48.7987 28.2889 48.7987 27.8623C48.7987 27.4089 49.1453 27.0622 49.5988 27.0622ZM39.8403 28.0222C40.2938 28.0222 40.6405 28.3952 40.6405 28.8218C40.6405 29.2752 40.2938 29.6219 39.8403 29.6219C39.4137 29.6219 39.0408 29.2752 39.0408 28.8218C39.0408 28.3952 39.4137 28.0222 39.8403 28.0222ZM39.894 30.8749C40.3207 30.8749 40.6936 31.2216 40.6936 31.675C40.6936 32.101 40.3207 32.4746 39.894 32.4746C39.4406 32.4746 39.0939 32.101 39.0939 31.675C39.0939 31.2216 39.4406 30.8749 39.894 30.8749ZM48.1059 22.9828C48.4258 22.9828 48.6925 23.2495 48.6925 23.5962C48.6925 23.916 48.4258 24.1827 48.1059 24.1827C47.7855 24.1827 47.5188 23.916 47.5188 23.5962C47.5188 23.2495 47.7855 22.9828 48.1059 22.9828ZM50.6388 23.1964C50.9586 23.1964 51.2253 23.4631 51.2253 23.8098C51.2253 24.1296 50.9586 24.3963 50.6388 24.3963C50.2921 24.3963 50.0254 24.1296 50.0254 23.8098C50.0254 23.4631 50.2921 23.1964 50.6388 23.1964ZM52.7713 24.4494C53.0917 24.4494 53.3578 24.7161 53.3578 25.0359C53.3578 25.3826 53.0917 25.6493 52.7713 25.6493C52.4252 25.6493 52.1585 25.3826 52.1585 25.0359C52.1585 24.7161 52.4252 24.4494 52.7713 24.4494ZM54.5314 23.836C54.8512 23.836 55.1179 24.1027 55.1179 24.4226C55.1179 24.743 54.8512 25.0359 54.5314 25.0359C54.211 25.0359 53.9449 24.743 53.9449 24.4226C53.9449 24.1027 54.211 23.836 54.5314 23.836ZM57.1973 24.9029C57.5171 24.9029 57.7838 25.1696 57.7838 25.4894C57.7838 25.8092 57.5171 26.0759 57.1973 26.0759C56.8507 26.0759 56.584 25.8092 56.584 25.4894C56.584 25.1696 56.8507 24.9029 57.1973 24.9029ZM52.9049 27.8086C53.2247 27.8086 53.4914 28.0753 53.4914 28.422C53.4914 28.7418 53.2247 29.0085 52.9049 29.0085C52.5583 29.0085 52.2915 28.7418 52.2915 28.422C52.2915 28.0753 52.5583 27.8086 52.9049 27.8086ZM51.3315 27.3289C51.6782 27.3289 51.9449 27.5956 51.9449 27.9154C51.9449 28.2621 51.6782 28.5288 51.3315 28.5288C51.0117 28.5288 50.745 28.2621 50.745 27.9154C50.745 27.5956 51.0117 27.3289 51.3315 27.3289ZM48.9586 25.5425C49.279 25.5425 49.5457 25.836 49.5457 26.1559C49.5457 26.4757 49.279 26.7424 48.9586 26.7424C48.6125 26.7424 48.3458 26.4757 48.3458 26.1559C48.3458 25.836 48.6125 25.5425 48.9586 25.5425ZM46.7461 25.996C47.066 25.996 47.3327 26.2621 47.3327 26.6093C47.3327 26.9291 47.066 27.1958 46.7461 27.1958C46.3995 27.1958 46.1328 26.9291 46.1328 26.6093C46.1328 26.2621 46.3995 25.996 46.7461 25.996ZM39.9471 25.5425C40.2938 25.5425 40.5605 25.836 40.5605 26.1559C40.5605 26.4757 40.2938 26.7424 39.9471 26.7424C39.6273 26.7424 39.3606 26.4757 39.3606 26.1559C39.3606 25.836 39.6273 25.5425 39.9471 25.5425ZM43.4931 30.2084C43.8398 30.2084 44.1065 30.4751 44.1065 30.7949C44.1065 31.1416 43.8398 31.4083 43.4931 31.4083C43.1733 31.4083 42.9066 31.1416 42.9066 30.7949C42.9066 30.4751 43.1733 30.2084 43.4931 30.2084ZM48.9586 29.595C49.279 29.595 49.5457 29.8618 49.5457 30.1816C49.5457 30.5282 49.279 30.7949 48.9586 30.7949C48.6125 30.7949 48.3458 30.5282 48.3458 30.1816C48.3458 29.8618 48.6125 29.595 48.9586 29.595ZM49.9717 31.4883C50.2921 31.4883 50.5588 31.755 50.5588 32.101C50.5588 32.4214 50.2921 32.6881 49.9717 32.6881C49.6519 32.6881 49.3589 32.4214 49.3589 32.101C49.3589 31.755 49.6519 31.4883 49.9717 31.4883ZM57.2242 32.4746C57.5708 32.4746 57.837 32.7413 57.837 33.0611C57.837 33.3809 57.5708 33.6744 57.2242 33.6744C56.9038 33.6744 56.6376 33.3809 56.6376 33.0611C56.6376 32.7413 56.9038 32.4746 57.2242 32.4746ZM44.56 31.2747C44.8798 31.2747 45.1727 31.5414 45.1727 31.8612C45.1727 32.2078 44.8798 32.4746 44.56 32.4746C44.2396 32.4746 43.9728 32.2078 43.9728 31.8612C43.9728 31.5414 44.2396 31.2747 44.56 31.2747ZM47.4395 30.2884C47.946 30.2884 48.3458 30.715 48.3458 31.1947C48.3458 31.7013 47.946 32.101 47.4395 32.101C46.9329 32.101 46.5325 31.7013 46.5325 31.1947C46.5325 30.715 46.9329 30.2884 47.4395 30.2884ZM58.2904 37.3004C58.797 37.3004 59.1968 37.7001 59.1968 38.2067C59.1968 38.7133 58.797 39.1136 58.2904 39.1136C57.8107 39.1136 57.3841 38.7133 57.3841 38.2067C57.3841 37.7001 57.8107 37.3004 58.2904 37.3004ZM39.8141 39.3798C40.3207 39.3798 40.7204 39.7801 40.7204 40.2867C40.7204 40.7932 40.3207 41.193 39.8141 41.193C39.3344 41.193 38.9072 40.7932 38.9072 40.2867C38.9072 39.7801 39.3344 39.3798 39.8141 39.3798ZM41.4137 34.0742C41.9203 34.0742 42.3201 34.474 42.3201 34.9805C42.3201 35.4609 41.9203 35.8875 41.4137 35.8875C40.9072 35.8875 40.5074 35.4609 40.5074 34.9805C40.5074 34.474 40.9072 34.0742 41.4137 34.0742ZM47.7324 33.3009C48.0254 33.3009 48.2658 33.5408 48.2658 33.8343C48.2658 34.1279 48.0254 34.3678 47.7324 34.3678C47.4395 34.3678 47.199 34.1279 47.199 33.8343C47.199 33.5408 47.4395 33.3009 47.7324 33.3009ZM44.5063 34.6876C44.7998 34.6876 45.0397 34.9274 45.0397 35.221C45.0397 35.514 44.7998 35.7538 44.5063 35.7538C44.2133 35.7538 43.9728 35.514 43.9728 35.221C43.9728 34.9274 44.2133 34.6876 44.5063 34.6876ZM42.7198 37.5134C43.0134 37.5134 43.2533 37.7538 43.2533 38.0468C43.2533 38.3404 43.0134 38.5802 42.7198 38.5802C42.4269 38.5802 42.187 38.3404 42.187 38.0468C42.187 37.7538 42.4269 37.5134 42.7198 37.5134ZM44.1333 41.9126C44.4263 41.9126 44.6662 42.1525 44.6662 42.446C44.6662 42.7396 44.4263 42.9794 44.1333 42.9794C43.8398 42.9794 43.5999 42.7396 43.5999 42.446C43.5999 42.1525 43.8398 41.9126 44.1333 41.9126ZM39.894 35.5677C40.187 35.5677 40.4274 35.8075 40.4274 36.1005C40.4274 36.394 40.187 36.6339 39.894 36.6339C39.6005 36.6339 39.3606 36.394 39.3606 36.1005C39.3606 35.8075 39.6005 35.5677 39.894 35.5677ZM40.2407 32.9543C40.5337 32.9543 40.7735 33.1947 40.7735 33.4877C40.7735 33.7812 40.5337 34.0211 40.2407 34.0211C39.9471 34.0211 39.7073 33.7812 39.7073 33.4877C39.7073 33.1947 39.9471 32.9543 40.2407 32.9543ZM36.9608 33.221C37.2544 33.221 37.4943 33.4608 37.4943 33.7544C37.4943 34.0474 37.2544 34.2878 36.9608 34.2878C36.6679 34.2878 36.428 34.0474 36.428 33.7544C36.428 33.4608 36.6679 33.221 36.9608 33.221ZM34.2949 35.7807C34.5885 35.7807 34.8284 36.0205 34.8284 36.3141C34.8284 36.6071 34.5885 36.8469 34.2949 36.8469C34.002 36.8469 33.7615 36.6071 33.7615 36.3141C33.7615 36.0205 34.002 35.7807 34.2949 35.7807ZM37.761 37.8601C38.0545 37.8601 38.2944 38.0999 38.2944 38.3935C38.2944 38.687 38.0545 38.9269 37.761 38.9269C37.4674 38.9269 37.2275 38.687 37.2275 38.3935C37.2275 38.0999 37.4674 37.8601 37.761 37.8601ZM37.9209 34.9543C38.2407 34.9543 38.5074 35.221 38.5074 35.5408C38.5074 35.8875 38.2407 36.1536 37.9209 36.1536C37.6011 36.1536 37.3075 35.8875 37.3075 35.5408C37.3075 35.221 37.6011 34.9543 37.9209 34.9543ZM34.4817 28.7955C34.7752 28.7955 35.0151 29.0354 35.0151 29.3283C35.0151 29.6219 34.7752 29.8618 34.4817 29.8618C34.1881 29.8618 33.9483 29.6219 33.9483 29.3283C33.9483 29.0354 34.1881 28.7955 34.4817 28.7955ZM52.3715 34.4209C52.6913 34.4209 52.958 34.6876 52.958 35.0074C52.958 35.3541 52.6913 35.6208 52.3715 35.6208C52.0248 35.6208 51.7587 35.3541 51.7587 35.0074C51.7587 34.6876 52.0248 34.4209 52.3715 34.4209ZM55.1442 43.1924C55.4909 43.1924 55.7576 43.4592 55.7576 43.779C55.7576 44.1256 55.4909 44.3923 55.1442 44.3923C54.8244 44.3923 54.5577 44.1256 54.5577 43.779C54.5577 43.4592 54.8244 43.1924 55.1442 43.1924ZM42.3201 41.1131C42.7198 41.1131 43.0402 41.4329 43.0402 41.8064C43.0402 42.2062 42.7198 42.526 42.3201 42.526C41.9472 42.526 41.6268 42.2062 41.6268 41.8064C41.6268 41.4329 41.9472 41.1131 42.3201 41.1131ZM42.9866 42.7396C43.2801 42.7396 43.52 42.9794 43.52 43.2724C43.52 43.566 43.2801 43.8058 42.9866 43.8058C42.6936 43.8058 42.4537 43.566 42.4537 43.2724C42.4537 42.9794 42.6936 42.7396 42.9866 42.7396ZM34.8546 41.273C35.468 41.273 35.9483 41.7795 35.9483 42.3661C35.9483 42.9794 35.468 43.4592 34.8546 43.4592C34.2687 43.4592 33.7615 42.9794 33.7615 42.3661C33.7615 41.7795 34.2687 41.273 34.8546 41.273ZM33.8683 39.9132C34.1619 39.9132 34.4017 40.153 34.4017 40.4466C34.4017 40.7396 34.1619 40.9794 33.8683 40.9794C33.5753 40.9794 33.3355 40.7396 33.3355 40.4466C33.3355 40.153 33.5753 39.9132 33.8683 39.9132ZM31.9488 37.5134C32.2418 37.5134 32.4823 37.7538 32.4823 38.0468C32.4823 38.3404 32.2418 38.5802 31.9488 38.5802C31.6553 38.5802 31.4154 38.3404 31.4154 38.0468C31.4154 37.7538 31.6553 37.5134 31.9488 37.5134ZM30.2161 37.4334C30.5359 37.4334 30.749 37.6739 30.749 37.9669C30.749 38.2598 30.5359 38.5003 30.2161 38.5003C29.9226 38.5003 29.709 38.2598 29.709 37.9669C29.709 37.6739 29.9226 37.4334 30.2161 37.4334ZM31.2024 40.5796C31.4954 40.5796 31.7352 40.8195 31.7352 41.1131C31.7352 41.406 31.4954 41.6459 31.2024 41.6459C30.9089 41.6459 30.669 41.406 30.669 41.1131C30.669 40.8195 30.9089 40.5796 31.2024 40.5796ZM29.6559 39.7801C30.0825 39.7801 30.456 40.1268 30.456 40.5796C30.456 41.0063 30.0825 41.3798 29.6559 41.3798C29.2024 41.3798 28.8557 41.0063 28.8557 40.5796C28.8557 40.1268 29.2024 39.7801 29.6559 39.7801ZM28.9094 41.6727C29.2024 41.6727 29.4428 41.9126 29.4428 42.2062C29.4428 42.4997 29.2024 42.7396 28.9094 42.7396C28.6159 42.7396 28.376 42.4997 28.376 42.2062C28.376 41.9126 28.6159 41.6727 28.9094 41.6727ZM26.6964 39.9132C27.2298 39.9132 27.6564 40.3398 27.6564 40.8732C27.6564 41.4329 27.2298 41.8595 26.6964 41.8595C26.1367 41.8595 25.7101 41.4329 25.7101 40.8732C25.7101 40.3398 26.1367 39.9132 26.6964 39.9132ZM29.0693 32.6082C29.3623 32.6082 29.6028 32.8481 29.6028 33.141C29.6028 33.4346 29.3623 33.6744 29.0693 33.6744C28.7764 33.6744 28.5359 33.4346 28.5359 33.141C28.5359 32.8481 28.7764 32.6082 29.0693 32.6082ZM27.3366 35.4871C27.6296 35.4871 27.8694 35.7276 27.8694 36.0205C27.8694 36.3141 27.6296 36.5539 27.3366 36.5539C27.0699 36.5539 26.8301 36.3141 26.8301 36.0205C26.8301 35.7276 27.0699 35.4871 27.3366 35.4871ZM25.5234 30.7949C25.8163 30.7949 26.0568 31.0085 26.0568 31.3283C26.0568 31.6213 25.8163 31.8349 25.5234 31.8349C25.2298 31.8349 24.9899 31.6213 24.9899 31.3283C24.9899 31.0085 25.2298 30.7949 25.5234 30.7949ZM44.3995 44.952C44.7998 44.952 45.1196 45.2724 45.1196 45.6722C45.1196 46.072 44.7998 46.3918 44.3995 46.3918C44.0265 46.3655 43.7067 46.072 43.7067 45.6722C43.7067 45.2724 44.0265 44.952 44.3995 44.952ZM40.8272 45.3255C41.1202 45.3255 41.36 45.5654 41.36 45.8589C41.36 46.1519 41.1202 46.3918 40.8272 46.3918C40.5337 46.3655 40.2938 46.1519 40.2938 45.8589C40.2938 45.5654 40.5337 45.3255 40.8272 45.3255ZM41.9203 46.4186C42.2133 46.4186 42.4537 46.6585 42.4537 46.952C42.4537 47.245 42.2133 47.4849 41.9203 47.4849C41.6268 47.4849 41.3869 47.245 41.3869 46.952C41.3869 46.6585 41.6268 46.4186 41.9203 46.4186ZM42.9066 50.9509C43.2002 50.9509 43.44 51.1907 43.44 51.4843C43.44 51.7779 43.2002 52.0177 42.9066 52.0177C42.6136 52.0177 42.3738 51.7779 42.3738 51.4843C42.3738 51.1907 42.6136 50.9509 42.9066 50.9509ZM31.1487 45.0588C31.4423 45.0588 31.6821 45.2987 31.6821 45.5922C31.6821 45.8852 31.4423 46.1256 31.1487 46.1256C30.8558 46.1256 30.6159 45.8852 30.6159 45.5922C30.6159 45.2987 30.8558 45.0588 31.1487 45.0588ZM32.4823 45.8589C32.882 45.8589 33.2018 46.1787 33.2018 46.5523C33.2018 46.952 32.882 47.2718 32.4823 47.2718C32.1088 47.2718 31.7889 46.952 31.7889 46.5523C31.7889 46.1787 32.1088 45.8589 32.4823 45.8589ZM32.002 43.5123C32.4017 43.5123 32.7221 43.8058 32.7221 44.2056C32.7221 44.6059 32.4017 44.9258 32.002 44.9258C31.6022 44.9258 31.2824 44.6059 31.2824 44.2056C31.2824 43.8058 31.6022 43.5123 32.002 43.5123ZM27.2561 44.4723C27.5496 44.4723 27.7895 44.7122 27.7895 45.0057C27.7895 45.2987 27.5496 45.5385 27.2561 45.5385C26.9631 45.5385 26.7233 45.2987 26.7233 45.0057C26.7233 44.7122 26.9631 44.4723 27.2561 44.4723ZM28.0031 47.5654C28.2961 47.5654 28.5359 47.8053 28.5359 48.0982C28.5359 48.3918 28.2961 48.6316 28.0031 48.6316C27.7095 48.6316 27.4697 48.3918 27.4697 48.0982C27.4697 47.8053 27.7095 47.5654 28.0031 47.5654ZM25.7101 44.4723C26.0031 44.4723 26.2429 44.7122 26.2429 45.0057C26.2429 45.2987 26.0031 45.5385 25.7101 45.5385C25.4166 45.5385 25.1767 45.2987 25.1767 45.0057C25.1767 44.7122 25.4166 44.4723 25.7101 44.4723ZM22.0305 41.193C22.324 41.193 22.5639 41.4329 22.5639 41.7264C22.5639 42.0194 22.324 42.2593 22.0305 42.2593C21.7375 42.2593 21.4977 42.0194 21.4977 41.7264C21.4977 41.4329 21.7375 41.193 22.0305 41.193ZM21.2841 36.1804C21.7107 36.1804 22.0842 36.5539 22.0842 36.9806C22.0842 37.4334 21.7107 37.7801 21.2841 37.7801C20.8312 37.7801 20.4839 37.4334 20.4839 36.9806C20.4839 36.5539 20.8312 36.1804 21.2841 36.1804ZM20.8043 33.9411C21.2309 33.9411 21.5776 34.2878 21.5776 34.7144C21.5776 35.1673 21.2309 35.514 20.8043 35.514C20.3509 35.514 20.0042 35.1673 20.0042 34.7144C20.0042 34.2878 20.3509 33.9411 20.8043 33.9411ZM22.3771 27.9423C22.8306 27.9423 23.1773 28.3152 23.1773 28.7418C23.1773 29.1953 22.8306 29.5419 22.3771 29.5419C21.9505 29.5419 21.5776 29.1953 21.5776 28.7418C21.5776 28.3152 21.9505 27.9423 22.3771 27.9423ZM20.8843 25.1159C21.1773 25.1159 21.4171 25.3557 21.4171 25.6493C21.4171 25.9428 21.1773 26.1827 20.8843 26.1827C20.5907 26.1827 20.3509 25.9428 20.3509 25.6493C20.3509 25.3557 20.5907 25.1159 20.8843 25.1159ZM33.0419 26.3158C34.0282 31.8081 33.0688 31.0085 38.6142 31.8612C32.9083 32.7944 33.9214 31.968 33.0688 37.4334C32.2687 32.101 32.9888 32.6881 27.4697 31.8612C32.8552 31.0085 32.0819 31.7812 33.0419 26.3158ZM44.3995 20.2369C45.2527 24.956 44.4263 24.2627 49.199 25.0097C44.2932 25.8092 45.1727 25.089 44.4263 29.7818C43.733 25.2227 44.3732 25.7293 39.6005 25.0097C44.2396 24.2627 43.5731 24.9291 44.3995 20.2369ZM46.8261 32.3946C47.5994 36.8207 46.8261 36.1536 51.3053 36.8738C46.7193 37.5933 47.5457 36.9537 46.8261 41.3529C46.2127 37.0605 46.7724 37.5402 42.3201 36.8738C46.6662 36.1804 46.026 36.7938 46.8261 32.3946Z" fill="white"/>
<path fill-rule="evenodd" clip-rule="evenodd" d="M47.998 62.8938C48.5577 62.4672 49.1711 61.9338 49.7308 61.5072C48.4778 61.4272 45.785 61.6408 44.7188 60.8944C45.4384 59.2948 55.2231 59.2411 56.8764 58.7613C55.01 57.6683 55.1431 58.148 55.5966 56.1485C50.9575 58.4678 45.3584 57.4815 42.3458 61.2673C44.1585 62.9469 45.7319 62.8139 47.998 62.8938ZM65.781 55.3222C63.6486 55.562 61.5686 55.5083 59.9158 55.2422C59.7022 53.4289 59.676 51.5894 59.676 51.0292C58.4761 52.7625 56.6628 55.0817 57.0632 57.4284C60.3693 57.9612 63.3282 57.7482 65.781 55.3222ZM61.5155 53.7225C64.688 54.0423 68.9273 53.3758 70.1803 50.5226C67.9141 51.1097 66.2077 51.2959 63.7816 51.2696C63.2482 49.9361 62.8753 48.5763 62.5555 47.2433C61.5686 49.1634 61.5155 51.5894 61.5155 53.7225ZM75.1397 41.6442C73.3533 43.3507 69.9941 46.0434 67.3008 46.0434C66.608 45.1371 65.9415 43.4843 65.4081 42.0177C64.8216 44.4175 64.8216 46.6568 65.2745 49.1097C70.0204 49.9629 74.0198 46.0703 75.1397 41.6442ZM76.2859 33.3261C75.2459 35.1388 71.7268 39.8047 69.2208 40.4181C68.4744 40.365 67.2745 37.6722 66.9541 37.032C67.0609 38.9783 67.1146 42.0177 68.3407 43.6442C73.2996 43.5905 76.5526 38.2319 76.2859 33.3261ZM75.4059 27.1405C74.1797 29.5403 72.5269 32.9263 70.2071 34.526C69.3008 34.2324 68.2339 32.8726 67.6212 32.1262C67.6743 34.2324 68.7942 36.3124 70.0472 37.8321C73.9398 37.0057 75.9661 31.4597 75.4059 27.1405ZM70.4738 31.8064C73.4595 28.9537 74.0466 25.2741 72.9798 21.4883C72.1803 23.6476 71.6469 26.1011 70.2602 27.9406C69.1671 27.6208 68.1808 27.0337 67.1677 26.5808C67.4607 28.5802 68.8742 30.5003 70.4738 31.8064ZM69.4338 16.2895C69.407 16.2895 69.4875 21.3015 69.0072 22.6082C67.5412 22.5282 67.0877 22.3946 65.781 21.8081C66.2345 23.4877 68.9541 26.0205 69.9404 26.1542C71.4601 22.928 71.1403 19.3289 69.4338 16.2895ZM68.0478 20.5819C68.2339 17.4089 67.4344 14.1564 65.3544 12.1302C65.568 13.623 65.8347 15.0359 65.7279 16.5825C64.8479 16.5025 63.7285 16.2627 62.8484 15.8629C63.1683 17.0359 66.5543 20.4489 68.0478 20.5819ZM64.4481 14.6362C64.1551 12.8235 62.5018 9.57048 60.8759 8.82405C60.8222 9.43742 61.1157 9.97025 61.1688 10.5037C59.8359 9.73039 58.1825 8.07762 56.2899 7.73096C57.4361 9.94399 59.1694 11.9703 61.0889 13.5168C62.5817 14.3432 62.8484 14.5294 64.4481 14.6362ZM32.2145 62.8938C31.6542 62.4672 31.0146 61.9338 30.4811 61.5072C31.7079 61.4272 34.4006 61.6408 35.4669 60.8944C34.7473 59.2948 24.9626 59.2411 23.3361 58.7613C25.1756 57.6683 25.0425 58.148 24.5891 56.1485C29.255 58.4678 34.8273 57.4815 37.8398 61.2673C36.0534 62.9469 34.4537 62.8139 32.2145 62.8938ZM14.4309 55.3222C16.5639 55.562 18.6171 55.5083 20.2698 55.2422C20.4828 53.4289 20.5097 51.5894 20.5365 51.0292C21.7096 52.7625 23.5491 55.0817 23.1493 57.4284C19.8432 57.9612 16.8837 57.7482 14.4309 55.3222ZM18.697 53.7225C15.4977 54.0423 11.2584 53.3758 10.0054 50.5226C12.2715 51.1097 14.0042 51.2959 16.404 51.2696C16.9374 49.9361 17.3104 48.5763 17.657 47.2433C18.6171 49.1634 18.697 51.5894 18.697 53.7225ZM5.04592 41.6442C6.83233 43.3507 10.1916 46.0434 12.8849 46.0434C13.5776 45.1371 14.2441 43.4843 14.7775 42.0177C15.364 44.4175 15.364 46.6568 14.9106 49.1097C10.1916 49.9629 6.16585 46.0703 5.04592 41.6442ZM3.89972 33.3261C4.9397 35.1388 8.45883 39.8047 10.9648 40.4181C11.7381 40.365 12.938 37.6722 13.231 37.032C13.1248 38.9783 13.0711 42.0177 11.8449 43.6442C6.88602 43.5905 3.63301 38.2319 3.89972 33.3261ZM4.80606 27.1405C6.00595 29.5403 7.65871 32.9263 9.97854 34.526C10.8849 34.2324 11.9517 32.8726 12.5645 32.1262C12.5114 34.2324 11.3914 36.3124 10.1384 37.8321C6.24581 37.0057 4.21953 31.4597 4.80606 27.1405ZM9.73868 31.8064C6.72611 28.9537 6.13901 25.2741 7.20584 21.4883C8.00538 23.6476 8.53879 26.1011 9.9517 27.9406C11.0185 27.6208 12.0311 27.0337 13.018 26.5808C12.7244 28.5802 11.3115 30.5003 9.73868 31.8064ZM10.7787 16.2895C10.7787 16.2895 10.6981 21.3015 11.1784 22.6082C12.6444 22.5282 13.1248 22.3946 14.4046 21.8081C13.9511 23.4877 11.2315 26.0205 10.2715 26.1542C8.72554 22.928 9.04536 19.3289 10.7787 16.2895ZM12.1379 20.5819C11.9517 17.4089 12.7512 14.1564 14.8312 12.1302C14.6445 13.623 14.3509 15.0359 14.4577 16.5825C15.364 16.5025 16.484 16.2627 17.3372 15.8629C17.0174 17.0359 13.6313 20.4489 12.1379 20.5819ZM15.7638 14.6362C16.0305 12.8235 17.6839 9.57048 19.3098 8.82405C19.3635 9.43742 19.0968 9.97025 19.0168 10.5037C20.3498 9.73039 22.0031 8.07762 23.8958 7.73096C22.7764 9.94399 21.0163 11.9703 19.0968 13.5168C17.6039 14.3432 17.3372 14.5294 15.7638 14.6362Z" fill="black"/>
</svg>
