<svg xmlns="http://www.w3.org/2000/svg" width="160" height="34" viewBox="0 0 160 34">
    <defs/>
    <path fill="#0d64aa" d="M68.411 32.649c-.173.519-.605.778-.865.778s-.692-.259-.865-.778L57.686 9.47c-.259-.692.259-1.297.951-1.297.346 0 .692.173.865.605l7.957 20.93 8.043-20.93c.173-.432.519-.605.865-.605.692 0 1.211.605.951 1.297l-8.907 23.179z"/>
    <path fill="#0069a4" d="M82.162 9.124c0-.605.432-.951.951-.951.432 0 .951.346.951.951v23.265c0 .605-.432.951-.951.951-.432 0-.951-.346-.951-.951V9.124z"/>
    <path fill="#0d64aa" d="M96.692 33.773c-2.249 0-5.362-.951-6.746-3.027-.173-.173-.173-.346-.173-.519 0-.519.432-.951.951-.951.519 0 .692.346.951.692 1.297 1.297 3.2 1.903 5.016 1.903 3.805 0 6.4-2.249 6.4-5.103 0-7.178-13.232-4.584-13.232-12.886 0-4.065 3.546-6.227 7.178-6.227 2.508 0 5.362 1.297 6.746 3.459.173.173.173.346.173.519 0 .519-.519.951-.951.951-.605 0-.778-.432-1.124-.778-1.211-1.384-2.941-2.249-4.93-2.249-2.941 0-5.276 1.73-5.276 4.324 0 6.4 13.232 3.978 13.232 12.886.001 4.238-3.804 7.006-8.215 7.006zM110.616 9.124c0-.605.432-.951.951-.951.432 0 .951.346.951.951v23.265c0 .605-.432.951-.951.951-.432 0-.951-.346-.951-.951V9.124zM127.568 7.827c-4.843 0-8.735 3.892-8.735 8.649v8.649c0 4.757 3.978 8.649 8.735 8.649 4.843 0 8.735-3.892 8.735-8.649v-8.649c0-4.757-3.892-8.649-8.735-8.649zm6.832 17.211c0 3.805-3.114 6.832-6.832 6.832-3.805 0-6.832-3.114-6.832-6.832v-8.649c0-3.805 3.114-6.832 6.832-6.832 3.805 0 6.832 3.114 6.832 6.832v8.649zM159.049 33.254c-.432 0-.951-.346-.951-.951V16.389c0-3.719-3.027-6.832-6.832-6.832-3.719 0-6.832 3.027-6.832 6.832v16c0 .605-.432.951-.951.951s-.951-.346-.951-.951v-16c0-4.757 3.892-8.649 8.735-8.649S160 11.632 160 16.389v16c0 .606-.432.865-.951.865z"/>
    <path fill="#a09e9c" d="M0 8.562h5.622v25.081H0zM7.351 4.93V0h9.686v23.005c0 3.286 2.681 5.881 5.881 5.881s5.968-2.422 5.968-5.881V8.562h5.449v14.443c0 3.286 2.681 5.881 5.968 5.881 3.2 0 5.968-2.595 5.968-5.881V8.562h5.449v14.443c0 7.092-5.362 10.984-10.638 10.984-3.978 0-7.092-1.297-9.341-4.757-2.335 3.546-5.362 4.757-9.427 4.757-5.276 0-10.724-3.892-10.724-10.984V5.016c-.001 0-4.239-.086-4.239-.086z"/>
</svg>
