<svg enable-background="new 0 0 2397.7 691" viewBox="0 0 2397.7 691" xmlns="http://www.w3.org/2000/svg"><path d="m1024.6 495c-2.8 7.7-8.5 11.3-13.4 11.3s-9.9-3.5-13.4-11.3l-133.8-348.3c-3.5-9.8 3.5-19 14.1-19 4.9 0 9.9 2.8 12.7 9.2l120.4 313.8 120.4-313.8c2.8-6.3 7.7-9.2 12.7-9.2 10.6 0 17.6 9.2 14.1 19z" fill="#0d64aa"/><path d="m1230.9 141.7c0-9.2 7-14.1 14.1-14.1 7 0 14.1 4.9 14.1 14.1v348.3c0 9.2-7 14.1-14.1 14.1-7 0-14.1-4.9-14.1-14.1z" fill="#0069a4"/><path d="m1448.5 511.2c-33.8 0-81-14.8-101.4-45.7-2.1-2.8-2.8-5.6-2.8-7.7 0-7.7 7-14.1 14.8-14.1 7.7 0 10.6 5.6 14.8 10.6 19 19.7 47.9 28.8 74.6 28.8 57 0 95.8-33.8 95.8-76 0-107-197.9-69-197.9-192.8 0-61.2 53.5-93.6 107-93.6 37.3 0 81 19.7 101.4 52.1 2.1 2.8 2.8 5.6 2.8 7.7 0 7.7-7.7 14.1-14.8 14.1-8.5 0-11.3-6.3-16.2-12-18.3-21.1-44.4-33.8-73.2-33.8-44.4 0-78.9 25.3-78.9 65.4 0 95.7 197.9 59.8 197.9 192.8 0 63.4-57 104.2-123.9 104.2z" fill="#0d64aa"/><path d="m1657.6 141.7c0-9.2 7-14.1 14.1-14.1 7 0 14.1 4.9 14.1 14.1v348.3c0 9.2-7 14.1-14.1 14.1-7 0-14.1-4.9-14.1-14.1z" fill="#0d64aa"/><path d="m1911.8 511.2c-71.8 0-130.3-58.4-130.3-130.2v-130.2c0-71.8 58.5-130.2 130.3-130.2s130.3 58.4 130.3 130.2v130.2c0 71.8-58.5 130.2-130.3 130.2zm102.1-260.4c0-56.3-45.8-102-102.1-102s-102.1 45.7-102.1 102v130.2c0 56.3 45.8 102 102.1 102s102.1-45.7 102.1-102z" fill="#0d64aa"/><path d="m2383.6 504.1c-7 0-14.1-4.9-14.1-14.1v-239.2c0-56.3-45.8-102-102.1-102s-102.1 45.7-102.1 102v239.2c0 9.2-7 14.1-14.1 14.1s-14.1-4.9-14.1-14.1v-239.2c0-71.8 58.5-130.2 130.3-130.2s130.3 58.4 130.3 130.2v239.2c0 9.2-7.1 14.1-14.1 14.1z" fill="#0d64aa"/><g fill="#a09e9c"><path d="m0 128h84.5v375.6h-84.5z"/><path d="m109.5 74v-74h144.7v344.8c0 48.6 40.2 87.8 87.9 87.8 48.4 0 89.6-36.5 89.6-88.2v-216.4h81.8v216.7c-.4 49.3 39.7 87.8 89 87.8 47.5 0 89.3-38.5 89.3-87.8v-216.7h81.3v216.7c0 105.9-79.9 164.4-158.8 164.4-60.1 0-106.4-18.8-140.4-71.6-35.3 52.6-80.8 71.6-140.9 71.6-78.9 0-160.5-58.5-160.5-164.4v-270.6z"/><path d="m1330.1 616.1-19.4 70.5c-.9 2.9-2.8 4.5-4.6 4.5-1.9 0-3.9-1.5-4.7-4.4l-16.8-55.1-16.7 55.1c-.9 2.9-2.7 4.4-4.7 4.4-1.9 0-3.9-1.6-4.6-4.5l-19.4-70.5c-.1-.5-.2-1-.2-1.5 0-2.9 2.5-4.6 5-4.6 1.9 0 3.8 1.1 4.6 3.6l14.9 54.3 16.5-54.4c.8-2.9 2.7-4.4 4.6-4.4s3.8 1.5 4.7 4.4l16.5 54.4 14.9-54.3c.7-2.5 2.6-3.6 4.6-3.6 2.5 0 5 1.7 5 4.6 0 .5-.1 1-.2 1.5z"/><path d="m1399.6 689.3h-36.3c-2.6 0-4.8-2.2-4.8-4.8v-69.7c0-2.6 2.2-4.8 4.8-4.8h36.3c3.2 0 4.8 2.4 4.8 4.8s-1.6 4.8-4.8 4.8h-31.5v23.4h28.6c3.2 0 4.8 2.4 4.8 4.8s-1.6 4.8-4.8 4.8h-28.6v26.9h31.5c3.2 0 4.8 2.4 4.8 4.8 0 2.6-1.6 5-4.8 5z"/><path d="m1460.4 689.3h-20.1c-2.6 0-4.8-2.2-4.8-4.8v-69.7c0-2.6 2.2-4.8 4.8-4.8h20.1c11.9 0 21.6 9.7 21.6 21.5 0 6.5-3.6 13.4-9.7 16.6 5.4 3.2 11.1 10.4 11.1 18.3.1 12.7-10.3 22.9-23 22.9zm0-45.9c6.6 0 11.9-5.3 11.9-11.8 0-6.6-5.3-11.9-11.9-11.9h-15.3v23.7zm0 9.6h-15.3v26.6h15.3c7.4 0 13.4-6 13.4-13.3s-6-13.3-13.4-13.3z"/><path d="m1555.7 689.3h-36.3c-2.6 0-4.8-2.2-4.8-4.8v-69.7c0-2.6 2.2-4.8 4.8-4.8h36.3c3.2 0 4.8 2.4 4.8 4.8s-1.6 4.8-4.8 4.8h-31.5v23.4h28.6c3.2 0 4.8 2.4 4.8 4.8s-1.6 4.8-4.8 4.8h-28.6v26.9h31.5c3.2 0 4.8 2.4 4.8 4.8.1 2.6-1.6 5-4.8 5z"/><path d="m1643.5 684.5c0 3.6-2 5.6-4.4 5.6-1.6 0-3.3-1-4.6-3.1l-33.2-54.9v52.4c0 3.2-2.4 4.8-4.8 4.8s-4.8-1.6-4.8-4.8v-69.7c0-3.6 2-5.6 4.4-5.6 1.6 0 3.3 1 4.7 3.1l33.2 54.9v-52.4c0-3.2 2.4-4.8 4.8-4.8s4.8 1.6 4.8 4.8v69.7z"/><path d="m1722 619.7h-18.4v64.9c0 3.2-2.4 4.8-4.8 4.8s-4.8-1.6-4.8-4.8v-64.9h-18.4c-3.2 0-4.8-2.4-4.8-4.8s1.6-4.8 4.8-4.8h46.5c3.2 0 4.8 2.4 4.8 4.8-.1 2.3-1.7 4.8-4.9 4.8z"/><path d="m1839.1 616.1-19.4 70.5c-.9 2.9-2.8 4.5-4.6 4.5-1.9 0-3.9-1.5-4.7-4.4l-16.8-55.1-16.7 55.1c-.9 2.9-2.7 4.4-4.7 4.4-1.9 0-3.9-1.6-4.6-4.5l-19.4-70.5c-.1-.5-.2-1-.2-1.5 0-2.9 2.5-4.6 5-4.6 1.9 0 3.8 1.1 4.6 3.6l14.9 54.3 16.5-54.4c.8-2.9 2.7-4.4 4.6-4.4s3.8 1.5 4.7 4.4l16.5 54.4 14.9-54.3c.7-2.5 2.6-3.6 4.6-3.6 2.5 0 5 1.7 5 4.6 0 .5-.1 1-.2 1.5z"/><path d="m1899.5 689.3h-31c-3.2 0-4.8-2.4-4.8-4.8s1.6-4.8 4.8-4.8h10.7v-60h-10.7c-3.2 0-4.8-2.4-4.8-4.8s1.6-4.8 4.8-4.8h31c3.2 0 4.8 2.4 4.8 4.8s-1.6 4.8-4.8 4.8h-10.7v60h10.7c3.2 0 4.8 2.4 4.8 4.8s-1.7 4.8-4.8 4.8z"/><path d="m1982.3 680.3s-.6.8-1.6 1.7c-5.7 5.4-13.5 8.2-21.3 8.2-14.9 0-26.9-12-26.9-26.9v-27.5c0-14.9 12-26.9 26.9-26.9 7.8 0 17.9 3.5 23 10 .8 1 1.2 2 1.2 3 0 2.7-2.4 4.9-5 4.9-1.3 0-2.6-.6-3.7-1.9l-.8-.8c-3.9-3.7-9.3-5.5-14.6-5.5-9.5 0-17.2 7.7-17.2 17.2v27.5c0 9.5 7.7 17.2 17.2 17.2 5.2 0 11.9-2 15.4-6.3 1.1-1.3 2.3-1.8 3.7-1.8 2.6 0 5.2 2.2 5.2 4.8-.1 1.1-.5 2.2-1.5 3.1z"/><path d="m2064.8 689.4c-1.4 0-2.7-.6-3.8-2l-25.8-34.6-10.9 12.5v19.2c0 3.2-2.4 4.8-4.8 4.8s-4.8-1.6-4.8-4.8v-69.7c0-3.2 2.4-4.8 4.8-4.8s4.8 1.6 4.8 4.8v35.8l33.8-39c1.1-1.3 2.3-1.7 3.6-1.7 2.6 0 5 2.3 5 4.9 0 1.1-.4 2.1-1.3 3.2l-23.7 27.3 26.9 36.3c.8 1 1.1 2 1.1 2.9.1 2.7-2.4 4.9-4.9 4.9z"/><path d="m2140.1 689.3h-36.3c-2.6 0-4.8-2.2-4.8-4.8v-69.7c0-3.2 2.4-4.8 4.8-4.8s4.8 1.6 4.8 4.8v64.9h31.5c3.2 0 4.8 2.4 4.8 4.8s-1.6 4.8-4.8 4.8z"/><path d="m2226.9 663.4c0 14.9-12 26.9-26.9 26.9s-26.9-12-26.9-26.9v-48.6c0-3.2 2.4-4.8 4.8-4.8s4.8 1.6 4.8 4.8v48.6c0 9.5 7.8 17.2 17.2 17.2s17.2-7.7 17.2-17.2v-48.6c0-3.2 2.4-4.8 4.8-4.8s4.8 1.6 4.8 4.8v48.6z"/><path d="m2311.8 684.5c0 3.6-2 5.6-4.4 5.6-1.6 0-3.3-1-4.6-3.1l-33.2-54.9v52.4c0 3.2-2.4 4.8-4.8 4.8s-4.8-1.6-4.8-4.8v-69.7c0-3.6 2-5.6 4.4-5.6 1.6 0 3.3 1 4.7 3.1l33.2 54.9v-52.4c0-3.2 2.4-4.8 4.8-4.8s4.8 1.6 4.8 4.8v69.7z"/><path d="m2397.7 663.4c0 14.9-12 26.9-26.9 26.9s-26.9-12-26.9-26.9v-27.5c0-14.9 12-26.9 26.9-26.9 7.8 0 17.9 3.5 23 10 .8 1 1.2 2 1.2 3 0 2.7-2.4 4.9-5 4.9-1.3 0-2.6-.6-3.7-1.9l-.8-.8c-3.9-3.7-9.3-5.5-14.6-5.5-9.5 0-17.2 7.7-17.2 17.2v27.5c0 9.5 7.7 17.2 17.2 17.2s17.2-7.7 17.2-17.2v-8.5h-16.5c-3.2 0-4.8-2.4-4.8-4.8s1.6-4.8 4.8-4.8h21.3c2.6 0 4.8 2.2 4.8 4.8z"/></g></svg>